<?xml version="1.0" standalone="no"?><!-- Generator: Gravit.io --><svg xmlns="http://www.w3.org/2000/svg" xmlns:xlink="http://www.w3.org/1999/xlink" style="isolation:isolate" viewBox="0 0 20 20" width="20" height="20"><defs><clipPath id="_clipPath_JHutOz7jrpMkChRpHE5r9ELhYpVCj9OL"><rect width="20" height="20"/></clipPath></defs><g clip-path="url(#_clipPath_JHutOz7jrpMkChRpHE5r9ELhYpVCj9OL)"><g id="Group"><path d=" M 1.458 15.229 L 1.458 5.687 L 9.722 10.458 L 9.722 20 L 1.458 15.229 Z  M 2.871 13.801 C 2.092 11.803 2.562 9.751 3.918 9.223 C 5.274 8.695 7.007 9.888 7.785 11.886 C 8.564 13.884 8.095 15.936 6.739 16.464 C 5.382 16.992 3.649 15.799 2.871 13.801 Z " fill-rule="evenodd" fill="rgb(205,57,57)"/><path d=" M 7.374 12.732 L 3.642 10.578 C 3.807 10.365 4.015 10.202 4.262 10.106 C 5.287 9.706 6.598 10.609 7.186 12.12 C 7.266 12.324 7.328 12.529 7.374 12.732 Z " fill="rgb(205,57,57)"/><defs><filter id="euKckNvllUVP6wBalraXb0fYy0iRGLQL" x="-200%" y="-200%" width="400%" height="400%"><feGaussianBlur xmlns="http://www.w3.org/2000/svg" stdDeviation="2.146804531419514"/></filter></defs><g filter="url(#euKckNvllUVP6wBalraXb0fYy0iRGLQL)"><path d=" M 3.287 13.057 L 6.928 15.158 C 6.773 15.335 6.586 15.471 6.369 15.555 C 5.343 15.955 4.033 15.053 3.444 13.542 C 3.381 13.38 3.329 13.218 3.287 13.057 Z " fill="rgb(205,57,57)"/></g></g><g id="Group"><path d=" M 19.034 15.229 L 19.034 5.687 L 10.77 10.458 L 10.77 20 L 19.034 15.229 Z  M 17.621 13.801 C 18.399 11.803 17.93 9.751 16.574 9.223 C 15.218 8.695 13.485 9.888 12.707 11.886 C 11.928 13.884 12.397 15.936 13.753 16.464 C 15.109 16.992 16.843 15.799 17.621 13.801 Z " fill-rule="evenodd" fill="rgb(205,57,57)"/><path d=" M 13.118 12.732 L 16.85 10.578 C 16.685 10.365 16.477 10.202 16.23 10.106 C 15.205 9.706 13.894 10.609 13.306 12.12 C 13.226 12.324 13.164 12.529 13.118 12.732 Z " fill="rgb(205,57,57)"/><defs><filter id="POtgKXfDxrcRHHTrv3KMfM6RFA8Eu5f5" x="-200%" y="-200%" width="400%" height="400%"><feGaussianBlur xmlns="http://www.w3.org/2000/svg" stdDeviation="2.146804531419514"/></filter></defs><g filter="url(#POtgKXfDxrcRHHTrv3KMfM6RFA8Eu5f5)"><path d=" M 17.205 13.057 L 13.564 15.158 C 13.719 15.335 13.906 15.471 14.123 15.555 C 15.149 15.955 16.459 15.053 17.048 13.542 C 17.111 13.38 17.163 13.218 17.205 13.057 Z " fill="rgb(205,57,57)"/></g></g><g id="Group"><path d=" M 10.246 0 L 1.982 4.771 L 10.246 9.542 L 18.51 4.771 L 10.246 0 Z  M 9.715 1.937 C 7.596 2.262 6.054 3.694 6.274 5.133 C 6.495 6.571 8.395 7.476 10.515 7.151 C 12.634 6.826 14.176 5.394 13.956 3.955 C 13.735 2.517 11.835 1.612 9.715 1.937 Z " fill-rule="evenodd" fill="rgb(205,57,57)"/><path d=" M 11.041 6.372 L 7.309 4.216 C 7.208 4.466 7.17 4.727 7.211 4.989 C 7.377 6.077 8.814 6.761 10.417 6.515 C 10.634 6.482 10.843 6.434 11.041 6.372 Z " fill="rgb(205,57,57)"/><defs><filter id="mU9vCLx3LB7dWlTee45nFqiM2SjjO4yu" x="-200%" y="-200%" width="400%" height="400%"><feGaussianBlur xmlns="http://www.w3.org/2000/svg" stdDeviation="2.146804531419514"/></filter></defs><g filter="url(#mU9vCLx3LB7dWlTee45nFqiM2SjjO4yu)"><path d=" M 9.279 2.67 L 12.919 4.772 C 12.995 4.55 13.019 4.32 12.984 4.089 C 12.817 3.001 11.38 2.318 9.777 2.563 C 9.606 2.59 9.439 2.626 9.279 2.67 Z " fill="rgb(205,57,57)"/></g></g></g></svg>