<?xml version="1.0" standalone="no"?><!-- Generator: Gravit.io --><svg xmlns="http://www.w3.org/2000/svg" xmlns:xlink="http://www.w3.org/1999/xlink" style="isolation:isolate" viewBox="0 0 20 20" width="20" height="20"><defs><clipPath id="_clipPath_vzil5B4sTWZSLb2EBtE2xLn9l97WXwQG"><rect width="20" height="20"/></clipPath></defs><g clip-path="url(#_clipPath_vzil5B4sTWZSLb2EBtE2xLn9l97WXwQG)"><path d="M 0.586 15.311 L 19.414 15.311 C 19.737 15.311 20 15.574 20 15.897 L 20 19.414 C 20 19.737 19.737 20 19.414 20 L 0.586 20 C 0.263 20 0 19.737 0 19.414 L 0 15.897 C 0 15.574 0.263 15.311 0.586 15.311 Z" style="stroke:none;fill:#CD3939;stroke-miterlimit:10;"/><path d="M 2.68 13.373 L 17.32 13.373 C 17.644 13.373 17.906 13.636 17.906 13.96 L 17.906 17.476 C 17.906 17.8 17.644 18.062 17.32 18.062 L 2.68 18.062 C 2.356 18.062 2.094 17.8 2.094 17.476 L 2.094 13.96 C 2.094 13.636 2.356 13.373 2.68 13.373 Z" style="stroke:none;fill:#CD3939;stroke-miterlimit:10;"/><path d="M 6.178 2.278 L 13.822 2.278 C 14.145 2.278 14.408 2.541 14.408 2.864 L 14.408 10.508 C 14.408 10.831 14.145 11.094 13.822 11.094 L 6.178 11.094 C 5.855 11.094 5.592 10.831 5.592 10.508 L 5.592 2.864 C 5.592 2.541 5.855 2.278 6.178 2.278 Z" style="stroke:none;fill:#CD3939;stroke-miterlimit:10;"/></g></svg>