<?xml version="1.0" standalone="no"?><!-- Generator: Gravit.io --><svg xmlns="http://www.w3.org/2000/svg" xmlns:xlink="http://www.w3.org/1999/xlink" style="isolation:isolate" viewBox="0 0 20 20" width="20" height="20"><defs><clipPath id="_clipPath_5iEvRh1E0YTe5tMRhMnDQSIlRSrGTKxT"><rect width="20" height="20"/></clipPath></defs><g clip-path="url(#_clipPath_5iEvRh1E0YTe5tMRhMnDQSIlRSrGTKxT)"><path d=" M 14.798 20 L 15.866 20 C 16.142 20 16.366 19.776 16.366 19.5 L 16.366 0.5 C 16.366 0.224 16.142 0 15.866 0 L 4.134 0 C 3.858 0 3.634 0.224 3.634 0.5 L 3.634 19.5 C 3.634 19.776 3.858 20 4.134 20 L 5.202 20 C 5.478 20 5.702 19.776 5.702 19.5 L 5.702 2.466 C 5.702 2.19 5.926 1.966 6.202 1.966 L 13.798 1.966 C 14.074 1.966 14.298 2.19 14.298 2.466 L 14.298 19.5 C 14.298 19.776 14.522 20 14.798 20 Z " fill="rgb(205,57,57)"/><path d=" M 7.002 2.73 L 12.973 2.73 C 13.249 2.73 13.473 2.954 13.473 3.23 L 13.473 19.5 C 13.473 19.776 13.249 20 12.973 20 L 7.002 20 C 6.726 20 6.502 19.776 6.502 19.5 L 6.502 3.23 C 6.502 2.954 6.726 2.73 7.002 2.73 Z  M 11.002 11.517 C 11.002 11.005 11.418 10.589 11.93 10.589 C 12.443 10.589 12.859 11.005 12.859 11.517 C 12.859 12.029 12.443 12.445 11.93 12.445 C 11.418 12.445 11.002 12.029 11.002 11.517 Z " fill-rule="evenodd" fill="rgb(205,57,57)"/></g></svg>