<?xml version="1.0" standalone="no"?><!-- Generator: Gravit.io --><svg xmlns="http://www.w3.org/2000/svg" xmlns:xlink="http://www.w3.org/1999/xlink" style="isolation:isolate" viewBox="0 0 20 20" width="20" height="20"><defs><clipPath id="_clipPath_fEkdE1QyKYEprgoF0S8pqn5AAo2d5vFH"><rect width="20" height="20"/></clipPath></defs><g clip-path="url(#_clipPath_fEkdE1QyKYEprgoF0S8pqn5AAo2d5vFH)"><rect x="0" y="3.08" width="2.827" height="13.839" transform="matrix(1,0,0,1,0,0)" fill="rgb(205,57,57)"/><path d=" M 6.161 10 C 6.161 6.181 9.261 3.08 13.08 3.08 C 16.899 3.08 20 6.181 20 10 C 20 13.819 16.899 16.92 13.08 16.92 C 9.261 16.92 6.161 13.819 6.161 10 Z  M 17.173 10 C 17.173 7.741 15.339 5.908 13.08 5.908 C 10.822 5.908 8.988 7.741 8.988 10 C 8.988 12.259 10.822 14.092 13.08 14.092 C 15.339 14.092 17.173 12.259 17.173 10 Z " fill-rule="evenodd" fill="rgb(205,57,57)"/></g></svg>