<?xml version="1.0" standalone="no"?><!-- Generator: Gravit.io --><svg xmlns="http://www.w3.org/2000/svg" xmlns:xlink="http://www.w3.org/1999/xlink" style="isolation:isolate" viewBox="0 0 20 20" width="20" height="20"><defs><clipPath id="_clipPath_p70GAHO8QlyOCcfM9aclV2YPEPES7HWX"><rect width="20" height="20"/></clipPath></defs><g clip-path="url(#_clipPath_p70GAHO8QlyOCcfM9aclV2YPEPES7HWX)"><path d="M 4.183 15.311 L 15.817 15.311 C 16.073 15.311 16.281 15.519 16.281 15.776 L 16.281 19.535 C 16.281 19.792 16.073 20 15.817 20 L 4.183 20 C 3.927 20 3.719 19.792 3.719 19.535 L 3.719 15.776 C 3.719 15.519 3.927 15.311 4.183 15.311 Z" style="stroke:none;fill:#CD3939;stroke-miterlimit:10;"/><path d="M 8.169 0.881 L 12.03 7.521 C 12.193 7.801 12.098 8.16 11.818 8.323 L 9.929 9.421 C 9.65 9.584 9.29 9.488 9.128 9.209 L 5.267 2.569 C 5.104 2.289 5.199 1.93 5.479 1.768 L 7.368 0.669 C 7.647 0.507 8.006 0.602 8.169 0.881 Z" style="stroke:none;fill:#CD3939;stroke-miterlimit:10;"/><path d="M 10.076 0.881 L 12.826 5.61 C 12.989 5.89 12.894 6.249 12.614 6.411 L 10.725 7.51 C 10.445 7.672 10.086 7.577 9.924 7.298 L 7.174 2.569 C 7.011 2.289 7.106 1.93 7.386 1.768 L 9.275 0.669 C 9.555 0.507 9.914 0.602 10.076 0.881 Z" style="stroke:none;fill:#CD3939;stroke-miterlimit:10;"/><path d=" M 7.37 5.068 C -0.018 8.566 8.476 11.207 7.37 16.953" fill="none" vector-effect="non-scaling-stroke" stroke-width="3" stroke="rgb(205,57,57)" stroke-linejoin="miter" stroke-linecap="square" stroke-miterlimit="3"/></g></svg>