<?xml version="1.0" standalone="no"?><!-- Generator: Gravit.io --><svg xmlns="http://www.w3.org/2000/svg" xmlns:xlink="http://www.w3.org/1999/xlink" style="isolation:isolate" viewBox="0 0 20 20" width="20" height="20"><defs><clipPath id="_clipPath_BXZWoTFJmpZ81ffMyt07ENWeN0IntSGy"><rect width="20" height="20"/></clipPath></defs><g clip-path="url(#_clipPath_BXZWoTFJmpZ81ffMyt07ENWeN0IntSGy)"><path d=" M 6.816 1.117 C 7.689 0.418 8.796 0 10 0 C 11.623 0 13.069 0.76 14.001 1.944 C 13.471 2.134 12.994 2.455 12.62 2.89 C 11.97 3.63 11.61 4.58 11.62 5.56 C 11.61 6.55 11.97 7.5 12.62 8.24 C 13.239 8.949 14.137 9.369 15.095 9.38 L 15.095 10.617 C 14.757 10.955 14.373 11.249 13.958 11.492 C 13.488 11.752 12.958 11.902 12.418 11.902 C 11.868 11.892 11.318 11.762 10.818 11.512 C 10.168 11.192 9.558 10.782 9.028 10.292 C 8.928 10.202 8.798 10.152 8.668 10.152 C 8.538 10.162 8.408 10.222 8.318 10.322 C 8.228 10.412 8.178 10.542 8.188 10.682 C 8.188 10.812 8.248 10.932 8.348 11.022 C 8.958 11.582 9.638 12.052 10.378 12.412 C 11.018 12.722 11.708 12.892 12.418 12.902 C 13.128 12.902 13.828 12.712 14.448 12.362 C 14.672 12.232 14.888 12.09 15.095 11.935 L 15.095 14.905 C 15.095 17.717 12.812 20 10 20 C 7.188 20 4.905 17.717 4.905 14.905 L 4.905 8.018 C 5.478 8.473 6.194 8.733 6.948 8.741 C 7.898 8.731 8.798 8.311 9.418 7.601 C 10.068 6.861 10.428 5.911 10.418 4.921 C 10.428 3.941 10.068 2.991 9.418 2.251 C 8.798 1.531 7.898 1.121 6.948 1.111 C 6.903 1.111 6.859 1.113 6.816 1.117 Z  M 9.374 4.426 C 9.408 4.588 9.42 4.754 9.418 4.921 C 9.428 5.661 9.158 6.381 8.668 6.941 C 8.238 7.441 7.608 7.731 6.948 7.741 C 6.278 7.731 5.648 7.441 5.218 6.941 C 5.1 6.807 4.996 6.664 4.905 6.514 L 4.905 5.095 C 4.905 4.19 5.141 3.341 5.554 2.603 C 5.944 2.291 6.434 2.119 6.948 2.111 C 7.377 2.118 7.794 2.243 8.151 2.467 C 7.417 2.485 6.828 3.075 6.828 3.8 C 6.828 4.537 7.437 5.135 8.187 5.135 C 8.705 5.135 9.155 4.85 9.374 4.426 Z  M 12.713 4.781 C 12.832 4.33 13.056 3.909 13.37 3.55 C 13.681 3.189 14.096 2.937 14.557 2.829 C 14.903 3.51 15.095 4.28 15.095 5.095 L 15.095 8.38 C 14.427 8.369 13.799 8.079 13.37 7.58 C 13.29 7.489 13.216 7.393 13.15 7.293 C 13.199 7.3 13.249 7.303 13.3 7.303 C 14.05 7.303 14.659 6.705 14.659 5.968 C 14.659 5.231 14.05 4.633 13.3 4.633 C 13.087 4.633 12.886 4.681 12.713 4.781 Z " fill-rule="evenodd" fill="rgb(205,57,57)"/></g></svg>