<?xml version="1.0" standalone="no"?><!-- Generator: Gravit.io --><svg xmlns="http://www.w3.org/2000/svg" xmlns:xlink="http://www.w3.org/1999/xlink" style="isolation:isolate" viewBox="0 0 20 20" width="20" height="20"><defs><clipPath id="_clipPath_znoIMfMMhs7KYcyZnjIe0OzHT8UahJym"><rect width="20" height="20"/></clipPath></defs><g clip-path="url(#_clipPath_znoIMfMMhs7KYcyZnjIe0OzHT8UahJym)"><path d=" M 4.119 8.489 C 4.28 7.855 4.478 7.231 4.71 6.621 C 4.93 6.04 5.183 5.474 5.469 4.922 C 5.738 4.402 6.038 3.901 6.37 3.42 C 6.68 2.969 7.022 2.543 7.395 2.142 C 7.741 1.767 8.121 1.426 8.531 1.119 C 8.916 0.829 9.334 0.584 9.776 0.391 C 10.206 0.201 10.662 0.077 11.128 0.024 C 11.6 -0.028 12.078 0.005 12.539 0.121 C 12.998 0.241 13.433 0.443 13.821 0.716 C 14.204 0.987 14.544 1.316 14.829 1.689 C 15.123 2.072 15.371 2.488 15.569 2.928 C 15.78 3.394 15.948 3.876 16.071 4.372 C 16.204 4.903 16.298 5.441 16.352 5.986 C 16.411 6.567 16.433 7.151 16.418 7.735 C 16.402 8.357 16.351 8.975 16.264 9.59 C 16.172 10.236 16.045 10.879 15.881 11.512 C 15.72 12.144 15.522 12.768 15.29 13.38 C 15.07 13.959 14.817 14.527 14.531 15.078 C 14.262 15.597 13.962 16.099 13.63 16.58 C 13.32 17.03 12.978 17.458 12.605 17.857 C 12.259 18.232 11.878 18.575 11.469 18.88 C 11.084 19.17 10.666 19.416 10.224 19.61 C 9.794 19.798 9.338 19.922 8.872 19.976 C 8.399 20.029 7.922 19.995 7.461 19.878 C 7.002 19.759 6.567 19.558 6.179 19.284 C 5.796 19.012 5.456 18.684 5.17 18.311 C 4.877 17.928 4.629 17.511 4.431 17.071 C 4.22 16.607 4.052 16.123 3.929 15.628 C 3.795 15.098 3.702 14.558 3.647 14.015 C 3.588 13.434 3.567 12.849 3.582 12.264 C 3.597 11.644 3.649 11.024 3.736 10.411 C 3.828 9.763 3.955 9.121 4.119 8.489 Z  M 6.209 9.026 C 6.35 8.47 6.524 7.922 6.727 7.386 C 6.918 6.883 7.138 6.391 7.385 5.914 C 7.612 5.475 7.866 5.051 8.148 4.644 C 8.399 4.28 8.675 3.934 8.977 3.611 C 9.237 3.33 9.521 3.074 9.827 2.845 C 10.08 2.654 10.353 2.494 10.644 2.366 C 10.875 2.264 11.12 2.198 11.37 2.169 C 11.582 2.146 11.796 2.16 12.001 2.212 C 12.206 2.266 12.401 2.356 12.575 2.479 C 12.78 2.624 12.963 2.801 13.116 3.002 C 13.309 3.253 13.471 3.526 13.602 3.815 C 13.759 4.163 13.885 4.524 13.977 4.895 C 14.085 5.325 14.161 5.761 14.205 6.201 C 14.255 6.693 14.274 7.187 14.261 7.681 C 14.247 8.219 14.203 8.755 14.127 9.287 C 14.047 9.855 13.935 10.419 13.791 10.975 C 13.649 11.531 13.476 12.077 13.272 12.615 C 13.081 13.118 12.862 13.608 12.615 14.086 C 12.388 14.524 12.134 14.949 11.852 15.355 C 11.601 15.72 11.325 16.065 11.023 16.389 C 10.763 16.67 10.478 16.927 10.173 17.156 C 9.92 17.345 9.646 17.507 9.355 17.634 C 9.125 17.735 8.88 17.802 8.63 17.832 C 8.418 17.853 8.204 17.839 7.999 17.788 C 7.794 17.734 7.599 17.643 7.425 17.522 C 7.22 17.375 7.037 17.198 6.884 16.999 C 6.69 16.747 6.529 16.474 6.398 16.186 C 6.241 15.838 6.115 15.475 6.023 15.104 C 5.915 14.675 5.839 14.239 5.795 13.799 C 5.744 13.307 5.726 12.812 5.739 12.319 C 5.753 11.781 5.797 11.246 5.872 10.713 C 5.953 10.144 6.065 9.582 6.209 9.026 Z " fill-rule="evenodd" fill="rgb(205,57,57)"/><path d=" M 6.398 16.186 C 7.458 18.205 10.522 17.203 12.001 12.83 C 13.054 13.425 14.236 14.364 13.272 15.628 L 7.999 19.199 L 5.739 17.421" fill="rgb(205,57,57)"/><path d=" M 15.29 5.587 L 13.602 1.915 C 10.833 0.891 11.363 3.257 11.469 4.372 C 12.637 4.432 14.662 4.038 14.127 9.777" fill="rgb(205,57,57)"/><path d=" M 7.924 4.987 C 6.906 6.817 6.233 10.232 7.266 12.41 C 5.621 13.013 4.393 12.749 4.431 11.16" fill="rgb(205,57,57)"/></g></svg>