<?xml version="1.0" standalone="no"?><!-- Generator: Gravit.io --><svg xmlns="http://www.w3.org/2000/svg" xmlns:xlink="http://www.w3.org/1999/xlink" style="isolation:isolate" viewBox="0 0 20 20" width="20" height="20"><defs><clipPath id="_clipPath_IIhKmwxQR0HRq5qgDyX4tovtwpQlZGhk"><rect width="20" height="20"/></clipPath></defs><g clip-path="url(#_clipPath_IIhKmwxQR0HRq5qgDyX4tovtwpQlZGhk)"><path d=" M 6.521 10 L 8.7 10 C 8.866 10 8.959 10.128 8.908 10.286 L 5.871 19.714 C 5.82 19.872 5.644 20 5.479 20 L 3.3 20 C 3.134 20 3.041 19.872 3.092 19.714 L 6.129 10.286 C 6.18 10.128 6.356 10 6.521 10 Z " fill="rgb(205,57,57)"/><path d=" M 13.479 10 L 11.3 10 C 11.134 10 11.041 10.128 11.092 10.286 L 14.129 19.714 C 14.18 19.872 14.356 20 14.521 20 L 16.7 20 C 16.866 20 16.959 19.872 16.908 19.714 L 13.871 10.286 C 13.82 10.128 13.644 10 13.479 10 Z " fill="rgb(205,57,57)"/><path d=" M 3.689 2.124 L 14.2 2.124 C 14.366 2.124 14.5 2.259 14.5 2.424 L 14.5 8.7 C 14.5 8.866 14.366 9 14.2 9 L 3.689 9 C 3.523 9 3.389 8.866 3.389 8.7 L 3.389 2.424 C 3.389 2.259 3.523 2.124 3.689 2.124 Z " fill="rgb(205,57,57)"/><rect x="12.309" y="4.284" width="7.691" height="2.556" transform="matrix(1,0,0,1,0,0)" fill="rgb(205,57,57)"/></g></svg>