<?xml version="1.0" standalone="no"?><!-- Generator: Gravit.io --><svg xmlns="http://www.w3.org/2000/svg" xmlns:xlink="http://www.w3.org/1999/xlink" style="isolation:isolate" viewBox="0 0 1024 1024" width="1024" height="1024"><defs><clipPath id="_clipPath_5WXOwxWS3KEkcIT08P2BghNDXXjYHLGH"><rect width="1024" height="1024"/></clipPath></defs><g clip-path="url(#_clipPath_5WXOwxWS3KEkcIT08P2BghNDXXjYHLGH)"><path d=" M 962.846 743.693 C 879.144 903.77 711.473 1013.124 518.462 1013.124 C 325.452 1013.124 157.78 903.77 74.078 743.693 L 962.846 743.693 Z  M 74.078 280.307 C 157.78 120.23 325.452 10.876 518.462 10.876 C 711.473 10.876 879.144 120.23 962.846 280.307 L 74.078 280.307 Z " fill="rgb(0,0,0)"/><path d=" M 180.145 519.015 L 152.986 650.48 L 59.014 650.48 L 133.279 299.105 L 340.45 299.105 L 324.348 375.292 L 211.148 375.292 L 197.209 442.346 L 301.996 442.346 L 285.413 519.015 L 180.145 519.015 Z " fill="rgb(0,0,0)"/><path d=" M 404.621 455.713 L 404.621 455.713 L 404.621 455.713 Q 438.268 455.713 456.969 474.931 L 456.969 474.931 L 456.969 474.931 Q 475.669 494.149 475.669 528.573 L 475.669 528.573 L 475.669 528.573 Q 475.669 562.997 462.792 591.532 L 462.792 591.532 L 462.792 591.532 Q 449.916 620.068 427.268 635.274 L 427.268 635.274 L 427.268 635.274 Q 404.621 650.48 374.727 650.48 L 374.727 650.48 L 374.727 650.48 Q 339.914 650.48 320.955 631.197 L 320.955 631.197 L 320.955 631.197 Q 301.996 611.915 301.996 577.62 L 301.996 577.62 L 301.996 577.62 Q 301.996 543.326 315.326 514.596 L 315.326 514.596 L 315.326 514.596 Q 328.655 485.866 351.626 470.79 L 351.626 470.79 L 351.626 470.79 Q 374.597 455.713 404.621 455.713 Z  M 424.551 529.09 L 424.551 529.09 L 424.551 529.09 Q 424.551 514.337 418.339 505.99 L 418.339 505.99 L 418.339 505.99 Q 412.127 497.643 400.35 497.643 L 400.35 497.643 L 400.35 497.643 Q 387.538 497.643 376.797 508.514 L 376.797 508.514 L 376.797 508.514 Q 366.056 519.384 359.65 538.408 L 359.65 538.408 L 359.65 538.408 Q 353.244 557.432 353.244 577.361 L 353.244 577.361 L 353.244 577.361 Q 353.244 608.679 379.127 608.679 L 379.127 608.679 L 379.127 608.679 Q 391.421 608.679 401.968 597.938 L 401.968 597.938 L 401.968 597.938 Q 412.515 587.197 418.533 568.95 L 418.533 568.95 L 418.533 568.95 Q 424.551 550.702 424.551 529.09 Z  M 597.835 497.902 L 597.835 497.902 L 597.835 497.902 Q 583.858 497.902 572.599 507.996 L 572.599 507.996 L 572.599 507.996 Q 561.34 518.09 554.934 535.82 L 554.934 535.82 L 554.934 535.82 Q 548.528 553.549 548.528 574.256 L 548.528 574.256 L 548.528 574.256 Q 548.528 591.597 555.776 600.138 L 555.776 600.138 L 555.776 600.138 Q 563.023 608.679 576.611 608.679 L 576.611 608.679 L 576.611 608.679 Q 587.352 608.679 598.352 606.026 L 598.352 606.026 L 598.352 606.026 Q 609.353 603.373 624.235 597.032 L 624.235 597.032 L 624.235 638.833 L 624.235 638.833 Q 597.964 650.48 567.293 650.48 L 567.293 650.48 L 567.293 650.48 Q 533.646 650.48 515.463 631.262 L 515.463 631.262 L 515.463 631.262 Q 497.281 612.044 497.281 576.844 L 497.281 576.844 L 497.281 576.844 Q 497.281 542.42 510.416 513.69 L 510.416 513.69 L 510.416 513.69 Q 523.552 484.96 546.134 470.337 L 546.134 470.337 L 546.134 470.337 Q 568.717 455.713 597.835 455.713 L 597.835 455.713 L 597.835 455.713 Q 632.129 455.713 660.083 472.666 L 660.083 472.666 L 640.929 512.137 L 640.929 512.137 Q 628.894 505.019 618.8 501.461 L 618.8 501.461 L 618.8 501.461 Q 608.706 497.902 597.835 497.902 Z  M 763.095 647.892 L 761.801 612.432 L 703.824 612.432 L 687.648 647.892 L 635.106 647.892 L 731.389 458.69 L 796.484 458.69 L 812.402 647.892 L 763.095 647.892 Z  M 750.413 510.584 L 722.33 572.055 L 760.248 572.055 L 758.048 517.184 L 757.789 506.055 L 757.789 506.055 Q 757.789 496.349 758.307 489.102 L 758.307 489.102 L 758.307 489.102 Q 755.201 500.231 750.413 510.584 L 750.413 510.584 Z  M 946.474 647.892 L 834.143 647.892 L 874.132 458.69 L 924.732 458.69 L 893.544 606.609 L 955.274 606.609 L 946.474 647.892 Z " fill-rule="evenodd" fill="rgb(0,0,0)"/><path d=" M 473.955 456.231 C 491.663 369.96 521.116 299.958 539.744 299.913 L 434.84 300.168 L 434.84 300.168 C 451.969 300.126 454.031 359.252 440.518 435.898 C 442.142 436.392 443.719 436.965 445.271 437.58 C 450.824 439.851 456.251 442.628 461.3 445.91 C 465.805 448.913 470.099 452.445 473.955 456.231 Z  M 782.006 433.415 C 799.885 357.65 825.901 299.34 842.903 299.298 L 737.998 299.553 L 737.998 299.553 C 754.993 299.512 757.155 357.707 744.034 433.415 L 782.006 433.415 Z  M 634.595 435.09 L 634.595 435.09 C 648.047 358.603 645.967 299.655 628.862 299.696 C 611.85 299.737 585.81 358.124 567.963 434.051 C 577.741 431.713 587.707 430.512 597.858 430.512 C 610.241 430.512 622.623 432.026 634.595 435.09 Z  M 861.593 433.415 C 879.473 357.556 905.519 299.146 922.535 299.105 C 939.564 299.063 941.701 357.488 928.494 433.415 L 928.494 433.415 L 861.593 433.415 Z " fill-rule="evenodd" fill="rgb(0,0,0)"/><path d=" M 785.305 704.965 L 785.305 696.608 L 802.593 696.608 L 802.593 718.198 L 802.593 718.198 Q 795.552 720.61 787.113 720.61 L 787.113 720.61 L 787.113 720.61 Q 777.852 720.61 772.797 715.239 L 772.797 715.239 L 772.797 715.239 Q 767.742 709.869 767.742 699.923 L 767.742 699.923 L 767.742 699.923 Q 767.742 690.224 773.277 684.827 L 773.277 684.827 L 773.277 684.827 Q 778.811 679.429 788.784 679.429 L 788.784 679.429 L 788.784 679.429 Q 792.565 679.429 795.922 680.141 L 795.922 680.141 L 795.922 680.141 Q 799.278 680.854 801.771 681.95 L 801.771 681.95 L 798.347 690.443 L 798.347 690.443 Q 794.018 688.306 788.839 688.306 L 788.839 688.306 L 788.839 688.306 Q 784.099 688.306 781.51 691.389 L 781.51 691.389 L 781.51 691.389 Q 778.921 694.471 778.921 700.197 L 778.921 700.197 L 778.921 700.197 Q 778.921 705.814 781.263 708.76 L 781.263 708.76 L 781.263 708.76 Q 783.606 711.705 788.017 711.705 L 788.017 711.705 L 788.017 711.705 Q 790.428 711.705 792.456 711.239 L 792.456 711.239 L 792.456 704.965 L 785.305 704.965 Z  M 824.321 705.485 L 821.581 705.485 L 821.581 720.062 L 810.758 720.062 L 810.758 680.005 L 823.882 680.005 L 823.882 680.005 Q 840.212 680.005 840.212 691.841 L 840.212 691.841 L 840.212 691.841 Q 840.212 698.8 833.417 702.609 L 833.417 702.609 L 845.089 720.062 L 832.814 720.062 L 824.321 705.485 Z  M 821.581 688.197 L 821.581 697.348 L 823.608 697.348 L 823.608 697.348 Q 829.28 697.348 829.28 692.334 L 829.28 692.334 L 829.28 692.334 Q 829.28 688.197 823.718 688.197 L 823.718 688.197 L 821.581 688.197 Z  M 886.215 699.978 L 886.215 699.978 L 886.215 699.978 Q 886.215 710.088 881.255 715.349 L 881.255 715.349 L 881.255 715.349 Q 876.296 720.61 866.734 720.61 L 866.734 720.61 L 866.734 720.61 Q 857.309 720.61 852.281 715.322 L 852.281 715.322 L 852.281 715.322 Q 847.253 710.034 847.253 699.923 L 847.253 699.923 L 847.253 699.923 Q 847.253 689.923 852.254 684.649 L 852.254 684.649 L 852.254 684.649 Q 857.254 679.374 866.789 679.374 L 866.789 679.374 L 866.789 679.374 Q 876.351 679.374 881.283 684.608 L 881.283 684.608 L 881.283 684.608 Q 886.215 689.841 886.215 699.978 Z  M 858.651 699.978 L 858.651 699.978 L 858.651 699.978 Q 858.651 711.595 866.734 711.595 L 866.734 711.595 L 866.734 711.595 Q 870.844 711.595 872.83 708.773 L 872.83 708.773 L 872.83 708.773 Q 874.817 705.951 874.817 699.978 L 874.817 699.978 L 874.817 699.978 Q 874.817 693.978 872.803 691.115 L 872.803 691.115 L 872.803 691.115 Q 870.789 688.252 866.789 688.252 L 866.789 688.252 L 866.789 688.252 Q 858.651 688.252 858.651 699.978 Z  M 916.682 680.005 L 927.505 680.005 L 927.505 704.115 L 927.505 704.115 Q 927.505 711.979 923.052 716.294 L 923.052 716.294 L 923.052 716.294 Q 918.6 720.61 910.216 720.61 L 910.216 720.61 L 910.216 720.61 Q 902.024 720.61 897.626 716.418 L 897.626 716.418 L 897.626 716.418 Q 893.229 712.226 893.229 704.362 L 893.229 704.362 L 893.229 680.005 L 904.106 680.005 L 904.106 703.513 L 904.106 703.513 Q 904.106 707.759 905.695 709.677 L 905.695 709.677 L 905.695 709.677 Q 907.284 711.595 910.38 711.595 L 910.38 711.595 L 910.38 711.595 Q 913.696 711.595 915.189 709.691 L 915.189 709.691 L 915.189 709.691 Q 916.682 707.787 916.682 703.458 L 916.682 703.458 L 916.682 680.005 Z  M 964.986 692.745 L 964.986 692.745 L 964.986 692.745 Q 964.986 699.458 961.027 703.115 L 961.027 703.115 L 961.027 703.115 Q 957.068 706.773 949.78 706.773 L 949.78 706.773 L 946.739 706.773 L 946.739 720.062 L 935.916 720.062 L 935.916 680.005 L 949.78 680.005 L 949.78 680.005 Q 957.369 680.005 961.178 683.32 L 961.178 683.32 L 961.178 683.32 Q 964.986 686.635 964.986 692.745 Z  M 946.739 688.745 L 946.739 697.951 L 948.711 697.951 L 948.711 697.951 Q 951.15 697.951 952.588 696.581 L 952.588 696.581 L 952.588 696.581 Q 954.027 695.211 954.027 692.8 L 954.027 692.8 L 954.027 692.8 Q 954.027 688.745 949.533 688.745 L 949.533 688.745 L 946.739 688.745 Z  M 383.803 720.062 L 372.925 720.062 L 372.925 680.005 L 383.803 680.005 L 383.803 720.062 Z  M 430.6 680.005 L 430.6 720.062 L 416.407 720.062 L 401.776 691.841 L 401.53 691.841 L 401.53 691.841 Q 402.05 698.499 402.05 702.006 L 402.05 702.006 L 402.05 720.062 L 392.461 720.062 L 392.461 680.005 L 406.598 680.005 L 421.175 707.842 L 421.339 707.842 L 421.339 707.842 Q 420.955 701.787 420.955 698.115 L 420.955 698.115 L 420.955 680.005 L 430.6 680.005 Z  M 477.397 680.005 L 477.397 720.062 L 463.204 720.062 L 448.573 691.841 L 448.327 691.841 L 448.327 691.841 Q 448.847 698.499 448.847 702.006 L 448.847 702.006 L 448.847 720.062 L 439.258 720.062 L 439.258 680.005 L 453.396 680.005 L 467.972 707.842 L 468.136 707.842 L 468.136 707.842 Q 467.753 701.787 467.753 698.115 L 467.753 698.115 L 467.753 680.005 L 477.397 680.005 Z  M 523.537 699.978 L 523.537 699.978 L 523.537 699.978 Q 523.537 710.088 518.577 715.349 L 518.577 715.349 L 518.577 715.349 Q 513.618 720.61 504.056 720.61 L 504.056 720.61 L 504.056 720.61 Q 494.631 720.61 489.603 715.322 L 489.603 715.322 L 489.603 715.322 Q 484.575 710.034 484.575 699.923 L 484.575 699.923 L 484.575 699.923 Q 484.575 689.923 489.576 684.649 L 489.576 684.649 L 489.576 684.649 Q 494.576 679.374 504.111 679.374 L 504.111 679.374 L 504.111 679.374 Q 513.673 679.374 518.605 684.608 L 518.605 684.608 L 518.605 684.608 Q 523.537 689.841 523.537 699.978 Z  M 495.973 699.978 L 495.973 699.978 L 495.973 699.978 Q 495.973 711.595 504.056 711.595 L 504.056 711.595 L 504.056 711.595 Q 508.166 711.595 510.152 708.773 L 510.152 708.773 L 510.152 708.773 Q 512.139 705.951 512.139 699.978 L 512.139 699.978 L 512.139 699.978 Q 512.139 693.978 510.125 691.115 L 510.125 691.115 L 510.125 691.115 Q 508.111 688.252 504.111 688.252 L 504.111 688.252 L 504.111 688.252 Q 495.973 688.252 495.973 699.978 Z  M 547.702 700.417 L 553.264 680.005 L 565.375 680.005 L 552.25 720.062 L 539.51 720.062 L 526.441 680.005 L 538.606 680.005 L 544.058 700.307 L 544.058 700.307 Q 545.757 707.075 545.921 709.732 L 545.921 709.732 L 545.921 709.732 Q 546.113 707.814 546.689 704.937 L 546.689 704.937 L 546.689 704.937 Q 547.264 702.061 547.702 700.417 L 547.702 700.417 Z  M 606.117 720.062 L 594.28 720.062 L 592.308 712.554 L 579.293 712.554 L 577.266 720.062 L 565.375 720.062 L 578.444 679.84 L 592.883 679.84 L 606.117 720.062 Z  M 581.54 703.677 L 590.061 703.677 L 588.335 697.101 L 588.335 697.101 Q 587.732 694.909 586.869 691.43 L 586.869 691.43 L 586.869 691.43 Q 586.006 687.95 585.732 686.443 L 585.732 686.443 L 585.732 686.443 Q 585.485 687.841 584.759 691.046 L 584.759 691.046 L 584.759 691.046 Q 584.033 694.252 581.54 703.677 L 581.54 703.677 Z  M 628.118 688.854 L 628.118 720.062 L 617.295 720.062 L 617.295 688.854 L 607.514 688.854 L 607.514 680.005 L 637.872 680.005 L 637.872 688.854 L 628.118 688.854 Z  M 654.475 720.062 L 643.598 720.062 L 643.598 680.005 L 654.475 680.005 L 654.475 720.062 Z  M 700.615 699.978 L 700.615 699.978 L 700.615 699.978 Q 700.615 710.088 695.656 715.349 L 695.656 715.349 L 695.656 715.349 Q 690.697 720.61 681.134 720.61 L 681.134 720.61 L 681.134 720.61 Q 671.709 720.61 666.682 715.322 L 666.682 715.322 L 666.682 715.322 Q 661.654 710.034 661.654 699.923 L 661.654 699.923 L 661.654 699.923 Q 661.654 689.923 666.654 684.649 L 666.654 684.649 L 666.654 684.649 Q 671.654 679.374 681.189 679.374 L 681.189 679.374 L 681.189 679.374 Q 690.751 679.374 695.683 684.608 L 695.683 684.608 L 695.683 684.608 Q 700.615 689.841 700.615 699.978 Z  M 673.052 699.978 L 673.052 699.978 L 673.052 699.978 Q 673.052 711.595 681.134 711.595 L 681.134 711.595 L 681.134 711.595 Q 685.244 711.595 687.231 708.773 L 687.231 708.773 L 687.231 708.773 Q 689.217 705.951 689.217 699.978 L 689.217 699.978 L 689.217 699.978 Q 689.217 693.978 687.203 691.115 L 687.203 691.115 L 687.203 691.115 Q 685.19 688.252 681.189 688.252 L 681.189 688.252 L 681.189 688.252 Q 673.052 688.252 673.052 699.978 Z  M 745.987 680.005 L 745.987 720.062 L 731.795 720.062 L 717.164 691.841 L 716.917 691.841 L 716.917 691.841 Q 717.438 698.499 717.438 702.006 L 717.438 702.006 L 717.438 720.062 L 707.848 720.062 L 707.848 680.005 L 721.986 680.005 L 736.562 707.842 L 736.727 707.842 L 736.727 707.842 Q 736.343 701.787 736.343 698.115 L 736.343 698.115 L 736.343 680.005 L 745.987 680.005 Z  M 81.84 705.485 L 79.101 705.485 L 79.101 720.062 L 68.278 720.062 L 68.278 680.005 L 81.402 680.005 L 81.402 680.005 Q 97.732 680.005 97.732 691.841 L 97.732 691.841 L 97.732 691.841 Q 97.732 698.8 90.937 702.609 L 90.937 702.609 L 102.609 720.062 L 90.334 720.062 L 81.84 705.485 Z  M 79.101 688.197 L 79.101 697.348 L 81.128 697.348 L 81.128 697.348 Q 86.8 697.348 86.8 692.334 L 86.8 692.334 L 86.8 692.334 Q 86.8 688.197 81.238 688.197 L 81.238 688.197 L 79.101 688.197 Z  M 130.035 711.239 L 130.035 720.062 L 106.253 720.062 L 106.253 680.005 L 130.035 680.005 L 130.035 688.69 L 117.075 688.69 L 117.075 694.992 L 129.076 694.992 L 129.076 703.677 L 117.075 703.677 L 117.075 711.239 L 130.035 711.239 Z  M 163.242 707.896 L 163.242 707.896 L 163.242 707.896 Q 163.242 711.623 161.352 714.513 L 161.352 714.513 L 161.352 714.513 Q 159.461 717.404 155.899 719.007 L 155.899 719.007 L 155.899 719.007 Q 152.338 720.61 147.543 720.61 L 147.543 720.61 L 147.543 720.61 Q 143.543 720.61 140.83 720.048 L 140.83 720.048 L 140.83 720.048 Q 138.118 719.486 135.186 718.089 L 135.186 718.089 L 135.186 708.444 L 135.186 708.444 Q 138.282 710.034 141.625 710.924 L 141.625 710.924 L 141.625 710.924 Q 144.967 711.815 147.762 711.815 L 147.762 711.815 L 147.762 711.815 Q 150.173 711.815 151.296 710.979 L 151.296 710.979 L 151.296 710.979 Q 152.42 710.143 152.42 708.828 L 152.42 708.828 L 152.42 708.828 Q 152.42 708.006 151.968 707.39 L 151.968 707.39 L 151.968 707.39 Q 151.516 706.773 150.516 706.143 L 150.516 706.143 L 150.516 706.143 Q 149.515 705.513 145.186 703.567 L 145.186 703.567 L 145.186 703.567 Q 141.268 701.787 139.309 700.115 L 139.309 700.115 L 139.309 700.115 Q 137.35 698.444 136.405 696.279 L 136.405 696.279 L 136.405 696.279 Q 135.46 694.115 135.46 691.156 L 135.46 691.156 L 135.46 691.156 Q 135.46 685.621 139.487 682.525 L 139.487 682.525 L 139.487 682.525 Q 143.515 679.429 150.557 679.429 L 150.557 679.429 L 150.557 679.429 Q 156.776 679.429 163.242 682.306 L 163.242 682.306 L 159.927 690.663 L 159.927 690.663 Q 154.31 688.087 150.228 688.087 L 150.228 688.087 L 150.228 688.087 Q 148.118 688.087 147.159 688.827 L 147.159 688.827 L 147.159 688.827 Q 146.2 689.567 146.2 690.663 L 146.2 690.663 L 146.2 690.663 Q 146.2 691.841 147.419 692.772 L 147.419 692.772 L 147.419 692.772 Q 148.639 693.704 154.036 696.17 L 154.036 696.17 L 154.036 696.17 Q 159.215 698.499 161.228 701.17 L 161.228 701.17 L 161.228 701.17 Q 163.242 703.841 163.242 707.896 Z  M 193.217 711.239 L 193.217 720.062 L 169.434 720.062 L 169.434 680.005 L 193.217 680.005 L 193.217 688.69 L 180.257 688.69 L 180.257 694.992 L 192.258 694.992 L 192.258 703.677 L 180.257 703.677 L 180.257 711.239 L 193.217 711.239 Z  M 236.644 720.062 L 224.807 720.062 L 222.835 712.554 L 209.82 712.554 L 207.793 720.062 L 195.902 720.062 L 208.971 679.84 L 223.41 679.84 L 236.644 720.062 Z  M 212.067 703.677 L 220.588 703.677 L 218.862 697.101 L 218.862 697.101 Q 218.259 694.909 217.396 691.43 L 217.396 691.43 L 217.396 691.43 Q 216.533 687.95 216.259 686.443 L 216.259 686.443 L 216.259 686.443 Q 216.012 687.841 215.286 691.046 L 215.286 691.046 L 215.286 691.046 Q 214.56 694.252 212.067 703.677 L 212.067 703.677 Z  M 254.535 705.485 L 251.795 705.485 L 251.795 720.062 L 240.973 720.062 L 240.973 680.005 L 254.097 680.005 L 254.097 680.005 Q 270.426 680.005 270.426 691.841 L 270.426 691.841 L 270.426 691.841 Q 270.426 698.8 263.631 702.609 L 263.631 702.609 L 275.303 720.062 L 263.029 720.062 L 254.535 705.485 Z  M 251.795 688.197 L 251.795 697.348 L 253.823 697.348 L 253.823 697.348 Q 259.494 697.348 259.494 692.334 L 259.494 692.334 L 259.494 692.334 Q 259.494 688.197 253.932 688.197 L 253.932 688.197 L 251.795 688.197 Z  M 296.784 688.306 L 296.784 688.306 L 296.784 688.306 Q 292.921 688.306 290.756 691.471 L 290.756 691.471 L 290.756 691.471 Q 288.592 694.635 288.592 700.197 L 288.592 700.197 L 288.592 700.197 Q 288.592 711.76 297.387 711.76 L 297.387 711.76 L 297.387 711.76 Q 300.044 711.76 302.538 711.02 L 302.538 711.02 L 302.538 711.02 Q 305.031 710.28 307.552 709.239 L 307.552 709.239 L 307.552 718.39 L 307.552 718.39 Q 302.538 720.61 296.209 720.61 L 296.209 720.61 L 296.209 720.61 Q 287.14 720.61 282.304 715.349 L 282.304 715.349 L 282.304 715.349 Q 277.468 710.088 277.468 700.143 L 277.468 700.143 L 277.468 700.143 Q 277.468 693.923 279.81 689.211 L 279.81 689.211 L 279.81 689.211 Q 282.153 684.498 286.551 681.964 L 286.551 681.964 L 286.551 681.964 Q 290.948 679.429 296.894 679.429 L 296.894 679.429 L 296.894 679.429 Q 303.387 679.429 309.305 682.251 L 309.305 682.251 L 305.99 690.772 L 305.99 690.772 Q 303.771 689.731 301.551 689.019 L 301.551 689.019 L 301.551 689.019 Q 299.332 688.306 296.784 688.306 Z  M 349.691 680.005 L 349.691 720.062 L 338.814 720.062 L 338.814 703.732 L 326.238 703.732 L 326.238 720.062 L 315.36 720.062 L 315.36 680.005 L 326.238 680.005 L 326.238 694.855 L 338.814 694.855 L 338.814 680.005 L 349.691 680.005 Z " fill-rule="evenodd" fill="rgb(0,0,0)"/></g></svg>