<?xml version="1.0" standalone="no"?><!-- Generator: Gravit.io --><svg xmlns="http://www.w3.org/2000/svg" xmlns:xlink="http://www.w3.org/1999/xlink" style="isolation:isolate" viewBox="0 0 512 512" width="512" height="512"><defs><clipPath id="_clipPath_4iZVEIaN7mBI2QA7OkA8G6TU5xikY6Hd"><rect width="512" height="512"/></clipPath></defs><g clip-path="url(#_clipPath_4iZVEIaN7mBI2QA7OkA8G6TU5xikY6Hd)"><rect width="512" height="512" style="fill:rgb(24,24,145)"/><g id="Group"><g opacity="0.42"><path d=" M 149 279.5 C 149 233.415 186.415 196 232.5 196 C 278.585 196 316 233.415 316 279.5 C 316 325.585 278.585 363 232.5 363 C 186.415 363 149 325.585 149 279.5 Z " fill="rgb(15,15,106)"/></g><g opacity="0.5"><path d=" M 51 417.25 C 51 411.179 55.929 406.25 62 406.25 C 68.071 406.25 73 411.179 73 417.25 C 73 423.321 68.071 428.25 62 428.25 C 55.929 428.25 51 423.321 51 417.25 Z " fill="rgb(16,16,106)"/></g><g opacity="0.2"><path d=" M 73 169 C 73 150.235 88.235 135 107 135 C 125.765 135 141 150.235 141 169 C 141 187.765 125.765 203 107 203 C 88.235 203 73 187.765 73 169 Z " fill="rgb(8,8,94)"/></g><g opacity="0.18"><path d=" M 277 104.5 C 277 79.388 297.388 59 322.5 59 C 347.612 59 368 79.388 368 104.5 C 368 129.612 347.612 150 322.5 150 C 297.388 150 277 129.612 277 104.5 Z " fill="rgb(57,57,174)"/></g><g opacity="0.25"><path d=" M 322.5 392.75 C 322.5 372.743 338.743 356.5 358.75 356.5 C 378.757 356.5 395 372.743 395 392.75 C 395 412.757 378.757 429 358.75 429 C 338.743 429 322.5 412.757 322.5 392.75 Z " fill="rgb(75,75,145)"/></g><g opacity="0.38"><path d=" M 149 380 C 149 359.027 166.027 342 187 342 C 207.973 342 225 359.027 225 380 C 225 400.973 207.973 418 187 418 C 166.027 418 149 400.973 149 380 Z " fill="rgb(50,50,181)"/></g><g opacity="0.23"><path d=" M 376 270 C 376 255.098 388.098 243 403 243 C 417.902 243 430 255.098 430 270 C 430 284.902 417.902 297 403 297 C 388.098 297 376 284.902 376 270 Z " fill="rgb(7,7,104)"/></g><g opacity="0.25"><path d=" M 322.5 158.25 C 322.5 121.962 351.962 92.5 388.25 92.5 C 424.538 92.5 454 121.962 454 158.25 C 454 194.538 424.538 224 388.25 224 C 351.962 224 322.5 194.538 322.5 158.25 Z " fill="rgb(0,0,145)"/></g><g opacity="0.2"><path d=" M 149 121.5 C 149 102.459 164.459 87 183.5 87 C 202.541 87 218 102.459 218 121.5 C 218 140.541 202.541 156 183.5 156 C 164.459 156 149 140.541 149 121.5 Z " fill="rgb(66,66,206)"/></g><g opacity="0.25"><path d=" M 51 59 C 51 32.784 72.284 11.5 98.5 11.5 C 124.716 11.5 146 32.784 146 59 C 146 85.216 124.716 106.5 98.5 106.5 C 72.284 106.5 51 85.216 51 59 Z " fill="rgb(55,55,183)"/></g><g opacity="0.22"><path d=" M 93.5 406.25 C 93.5 382.38 112.88 363 136.75 363 C 160.62 363 180 382.38 180 406.25 C 180 430.12 160.62 449.5 136.75 449.5 C 112.88 449.5 93.5 430.12 93.5 406.25 Z " fill="rgb(13,13,96)"/></g><g opacity="0.25"><path d=" M 368 439 C 368 406.437 394.437 380 427 380 C 459.563 380 486 406.437 486 439 C 486 471.563 459.563 498 427 498 C 394.437 498 368 471.563 368 439 Z " fill="rgb(11,11,111)"/></g><g opacity="0.17"><path d=" M 418.631 228.698 C 376.466 210.097 357.336 160.764 375.936 118.599 C 394.537 76.435 443.87 57.304 486.035 75.905 C 528.199 94.505 547.33 143.839 528.729 186.003 C 510.129 228.168 460.795 247.298 418.631 228.698 Z " fill="rgb(62,62,198)"/></g><g opacity="0.24"><path d=" M 507.56 373.959 C 502.006 371.509 499.485 365.01 501.936 359.455 C 504.386 353.9 510.885 351.38 516.44 353.831 C 521.994 356.281 524.515 362.78 522.064 368.335 C 519.614 373.889 513.115 376.409 507.56 373.959 Z " fill="rgb(15,15,225)"/></g><g opacity="0.09"><path d=" M 286.856 253.633 C 269.688 246.059 261.898 225.971 269.472 208.802 C 277.046 191.633 297.134 183.844 314.302 191.418 C 331.471 198.991 339.261 219.079 331.687 236.248 C 324.113 253.417 304.025 261.207 286.856 253.633 Z " fill="rgb(12,12,87)"/></g><g opacity="0.21"><path d=" M 111.184 22.745 C 88.208 12.609 77.784 -14.273 87.919 -37.249 C 98.055 -60.225 124.937 -70.649 147.913 -60.514 C 170.889 -50.378 181.313 -23.496 171.178 -0.52 C 161.042 22.456 134.16 32.88 111.184 22.745 Z " fill="rgb(12,12,204)"/></g><g opacity="0.08"><path d=" M 510.581 269.261 C 491.392 260.796 482.686 238.345 491.151 219.157 C 499.616 199.968 522.067 191.262 541.256 199.727 C 560.445 208.192 569.151 230.643 560.686 249.832 C 552.221 269.02 529.77 277.726 510.581 269.261 Z " fill="rgb(29,29,51)"/></g><g opacity="0.31"><path d=" M 501.56 17.175 C 487.926 11.16 481.74 -4.792 487.755 -18.426 C 493.769 -32.06 509.721 -38.246 523.355 -32.231 C 536.989 -26.217 543.175 -10.265 537.161 3.369 C 531.146 17.003 515.194 23.189 501.56 17.175 Z " fill="rgb(12,12,195)"/></g><g opacity="0.18"><path d=" M 295.964 39.041 C 262.763 24.395 247.699 -14.452 262.345 -47.653 C 276.992 -80.854 315.838 -95.918 349.039 -81.272 C 382.241 -66.625 397.305 -27.779 382.658 5.423 C 368.012 38.624 329.165 53.688 295.964 39.041 Z " fill="rgb(10,10,68)"/></g><g opacity="0.45"><path d=" M 274.072 164.926 C 256.651 157.241 248.747 136.858 256.432 119.436 C 264.117 102.015 284.501 94.111 301.922 101.796 C 319.343 109.482 327.247 129.865 319.562 147.286 C 311.877 164.707 291.493 172.612 274.072 164.926 Z " fill="rgb(7,7,132)"/></g><g opacity="0.39"><path d=" M 177.335 229.363 C 153.349 218.782 142.466 190.718 153.047 166.732 C 163.629 142.747 191.693 131.864 215.678 142.445 C 239.664 153.026 250.547 181.09 239.966 205.076 C 229.384 229.062 201.32 239.944 177.335 229.363 Z " fill="rgb(44,44,147)"/></g><g opacity="0.32"><path d=" M 511.799 333.21 C 489.96 323.575 480.051 298.022 489.685 276.183 C 499.32 254.343 524.873 244.434 546.712 254.069 C 568.552 263.703 578.461 289.256 568.827 311.096 C 559.192 332.935 533.639 342.844 511.799 333.21 Z " fill="rgb(14,14,81)"/></g><g opacity="0.17"><path d=" M 120.492 337.95 C 77.266 353.929 29.199 331.808 13.22 288.582 C -2.76 245.357 19.361 197.289 62.587 181.31 C 105.813 165.331 153.88 187.452 169.86 230.678 C 185.839 273.904 163.718 321.971 120.492 337.95 Z " fill="rgb(38,38,202)"/></g><g opacity="0.35"><path d=" M 166.558 135.946 C 147.792 142.883 126.925 133.279 119.987 114.514 C 113.05 95.748 122.654 74.88 141.419 67.943 C 160.185 61.006 181.053 70.61 187.99 89.375 C 194.927 108.141 185.324 129.009 166.558 135.946 Z " fill="rgb(27,27,89)"/></g><g opacity="0.12"><path d=" M 451.621 64.008 C 437.643 69.175 422.101 62.022 416.934 48.045 C 411.767 34.068 418.92 18.525 432.897 13.358 C 446.874 8.191 462.417 15.344 467.584 29.321 C 472.751 43.298 465.598 58.841 451.621 64.008 Z " fill="rgb(9,9,25)"/></g><g opacity="0.36"><path d=" M 217.447 109.937 C 186.904 121.228 152.94 105.598 141.65 75.055 C 130.359 44.512 145.989 10.548 176.532 -0.742 C 207.075 -12.033 241.038 3.597 252.329 34.14 C 263.62 64.683 247.99 98.646 217.447 109.937 Z " fill="rgb(17,17,104)"/></g><g opacity="0.21"><path d=" M 111.184 534.745 C 88.208 524.609 77.784 497.727 87.919 474.751 C 98.055 451.775 124.937 441.351 147.913 451.486 C 170.889 461.622 181.313 488.504 171.178 511.48 C 161.042 534.456 134.16 544.88 111.184 534.745 Z " fill="rgb(12,12,204)"/></g><g opacity="0.31"><path d=" M 501.56 529.175 C 487.926 523.16 481.74 507.208 487.755 493.574 C 493.769 479.94 509.721 473.754 523.355 479.769 C 536.989 485.783 543.175 501.735 537.161 515.369 C 531.146 529.003 515.194 535.189 501.56 529.175 Z " fill="rgb(12,12,195)"/></g><g opacity="0.17"><path d=" M -93.369 228.698 C -135.534 210.097 -154.664 160.764 -136.064 118.599 C -117.463 76.435 -68.13 57.304 -25.965 75.905 C 16.199 94.505 35.33 143.839 16.729 186.003 C -1.871 228.168 -51.205 247.298 -93.369 228.698 Z " fill="rgb(62,62,198)"/></g><g opacity="0.24"><path d=" M -4.44 373.959 C -9.994 371.509 -12.515 365.01 -10.064 359.455 C -7.614 353.9 -1.115 351.38 4.44 353.831 C 9.994 356.281 12.515 362.78 10.064 368.335 C 7.614 373.889 1.115 376.409 -4.44 373.959 Z " fill="rgb(15,15,225)"/></g><g opacity="0.08"><path d=" M -1.419 269.261 C -20.608 260.796 -29.314 238.345 -20.849 219.157 C -12.384 199.968 10.067 191.262 29.256 199.727 C 48.445 208.192 57.151 230.643 48.686 249.832 C 40.221 269.02 17.77 277.726 -1.419 269.261 Z " fill="rgb(29,29,51)"/></g><g opacity="0.31"><path d=" M -10.44 17.175 C -24.074 11.16 -30.26 -4.792 -24.245 -18.426 C -18.231 -32.06 -2.279 -38.246 11.355 -32.231 C 24.989 -26.217 31.175 -10.265 25.161 3.369 C 19.146 17.003 3.194 23.189 -10.44 17.175 Z " fill="rgb(12,12,195)"/></g><g opacity="0.32"><path d=" M -0.201 333.21 C -22.04 323.575 -31.949 298.022 -22.315 276.183 C -12.68 254.343 12.873 244.434 34.712 254.069 C 56.552 263.703 66.461 289.256 56.827 311.096 C 47.192 332.935 21.639 342.844 -0.201 333.21 Z " fill="rgb(14,14,81)"/></g><g opacity="0.31"><path d=" M -10.44 529.175 C -24.074 523.16 -30.26 507.208 -24.245 493.574 C -18.231 479.94 -2.279 473.754 11.355 479.769 C 24.989 485.783 31.175 501.735 25.161 515.369 C 19.146 529.003 3.194 535.189 -10.44 529.175 Z " fill="rgb(12,12,195)"/></g><g opacity="0.18"><path d=" M 295.964 551.041 C 262.763 536.395 247.699 497.548 262.345 464.347 C 276.992 431.146 315.838 416.082 349.039 430.728 C 382.241 445.375 397.305 484.221 382.658 517.423 C 368.012 550.624 329.165 565.688 295.964 551.041 Z " fill="rgb(10,10,68)"/></g><g opacity="0.36"><path d=" M 217.447 621.937 C 186.904 633.228 152.94 617.598 141.65 587.055 C 130.359 556.512 145.989 522.548 176.532 511.258 C 207.075 499.967 241.038 515.597 252.329 546.14 C 263.62 576.683 247.99 610.646 217.447 621.937 Z " fill="rgb(17,17,104)"/></g><g opacity="0.32"><path d=" M 83.954 377.227 C 82.668 398.161 64.628 414.111 43.695 412.825 C 22.761 411.538 6.811 393.499 8.097 372.565 C 9.384 351.632 27.423 335.681 48.357 336.968 C 69.29 338.254 85.241 356.294 83.954 377.227 Z " fill="rgb(58,58,159)"/></g><g opacity="0.09"><path d=" M 127.195 463.904 C 125.731 487.73 105.199 505.884 81.374 504.42 C 57.548 502.956 39.394 482.424 40.858 458.598 C 42.322 434.773 62.854 416.618 86.68 418.083 C 110.505 419.547 128.66 440.079 127.195 463.904 Z " fill="rgb(43,43,227)"/></g></g></g></svg>