<?xml version="1.0" standalone="no"?><!-- Generator: Gravit.io --><svg xmlns="http://www.w3.org/2000/svg" xmlns:xlink="http://www.w3.org/1999/xlink" style="isolation:isolate" viewBox="0 0 512 512" width="512" height="512"><defs><clipPath id="_clipPath_qK70bkM3PuqMGlo1ucE6c5ji7u8adjOb"><rect width="512" height="512"/></clipPath></defs><g clip-path="url(#_clipPath_qK70bkM3PuqMGlo1ucE6c5ji7u8adjOb)"><rect x="0" y="0" width="512" height="512" transform="matrix(1,0,0,1,0,0)" fill="rgb(202,145,70)"/><path d=" M 125.306 78.981 L 126.294 38.75 L 129.259 35.363 L 133.211 42.562 L 135.329 37.621 L 136.176 40.868 L 140.128 37.621 L 140.128 72.205 L 138.152 76.581 L 135.329 72.205 L 132.364 80.251 L 130.106 75.452 L 128.13 84.345 L 125.306 78.981 Z " fill="rgb(212,144,71)"/><path d=" M 186.333 98.695 L 183.698 100.689 L 182.917 97.998 L 151.595 152.381 L 154.328 160.371 L 161.243 156.439 L 161.829 162.03 L 184.416 110.232 L 181.635 112.972 L 186.333 98.695 Z " fill="rgb(231,208,160)"/><path d=" M 195.159 189.773 L 146.576 197.892 L 149.268 193.758 L 145.737 190.923 L 148.585 185.891 L 142.359 181.114 L 162.803 172.218 L 157.76 169.397 L 160.345 167.495 L 155.63 163.21 L 194.625 150.965 L 191.835 154.627 L 200.712 164.23 L 197.911 166.882 L 200.808 168.923 L 196.274 174.873 L 203.614 177.072 L 191.43 185.318 L 195.159 189.773 Z " fill="rgb(223,168,98)"/><path d=" M 74.091 -14.826 L 74.535 -11.819 L 78.954 -14.043 L 65.06 22.003 L 68.351 19.668 L 69.76 24.21 L 83.642 -8.936 L 85.555 -3.671 L 94.085 -5.306 L 95.026 -1.562 L 99.614 -2.709 L 77.663 50.131 L 75.7 35.992 L 68.902 48.308 L 67.634 42.028 L 60.59 49.481 L 57.952 38.933 L 50.076 50.313 L 74.091 -14.826 Z " fill="rgb(157,92,28)"/><path d=" M 72.422 3.928 L 72.655 8.176 L 76.496 9.154 L 75.509 12.573 L 79.457 13.714 L 52.092 35.181 L 57.075 34.493 L 53.058 41.499 L 19.554 68.341 L 21.983 63.524 L 14.802 64.944 L 20.391 57.149 L 9.108 59.381 L 39.667 33.061 L 32.475 34.258 L 72.422 3.928 Z " fill="rgb(221,156,91)"/><path d=" M 52.129 98.529 L 53.785 91.474 L 55.411 93.768 L 63.3 83.105 L 64.544 84.86 L 70.981 75.632 L 95.387 107.922 L 97.338 103.544 L 101.254 105.635 L 102.607 99.808 L 112.093 97.951 L 138.086 129.416 L 129.498 129.684 L 130.734 135.793 L 125.985 134.736 L 125.344 139.614 L 113.03 141.36 L 98.868 125.325 L 99.49 130.472 L 93.36 125.505 L 114.319 151.388 L 110.29 152.382 L 112.962 159.567 L 101.424 158.668 L 52.129 98.529 Z " fill="rgb(208,148,77)"/><path d=" M 155.765 210.407 L 193.834 197.361 L 196.173 193.515 L 188.119 191.911 L 192.193 188.406 L 188.842 188.575 L 190.749 183.828 L 157.767 194.233 L 154.189 197.434 L 159.211 198.81 L 152.43 204.058 L 157.686 204.768 L 149.8 209.328 L 155.765 210.407 Z " fill="rgb(195,128,57)"/><path d=" M 67.692 208.259 L 70.989 208.037 L 69.813 205.493 L 129.123 226.012 L 132.299 233.836 L 124.5 235.402 L 127.724 240.008 L 76.705 215.713 L 80.601 215.957 L 67.692 208.259 Z " fill="rgb(182,109,37)"/><path d=" M 21.444 226.125 L 49.596 266.544 L 50.671 261.729 L 55.167 262.273 L 56.774 256.718 L 64.542 257.832 L 56.614 236.994 L 62.156 238.628 L 61.71 235.45 L 68.07 235.827 L 49.57 199.381 L 48.902 203.936 L 35.829 204.3 L 35.89 208.157 L 32.406 207.511 L 31.32 214.913 L 24.617 211.201 L 27.236 225.677 L 21.444 226.125 Z " fill="rgb(225,176,110)"/><path d=" M 135.487 205.242 L 132.454 205.441 L 133.699 200.653 L 101.38 221.815 L 102.972 218.107 L 98.234 217.684 L 127.721 197.143 L 122.17 196.38 L 121.976 187.697 L 118.117 187.564 L 118.274 182.838 L 71.231 215.408 L 85.467 214.355 L 74.855 223.59 L 81.261 223.51 L 75.457 231.963 L 86.323 232.324 L 76.854 242.417 L 135.487 205.242 Z " fill="rgb(202,133,63)"/><path d=" M 109.443 308.707 L 112.568 305.821 L 116.007 307.794 L 117.679 304.653 L 121.307 306.583 L 116.617 272.12 L 119.713 276.084 L 121.709 268.258 L 116.355 225.664 L 114.744 230.812 L 110.579 224.793 L 109.162 234.279 L 102.618 224.82 L 106.223 264.989 L 101.894 259.122 L 109.443 308.707 Z " fill="rgb(206,153,87)"/><path d=" M 280.972 262.065 L 286.081 256.926 L 283.273 256.76 L 288.143 244.423 L 285.996 244.297 L 290.417 233.95 L 250.102 230.339 L 252.784 226.366 L 248.937 224.151 L 253.164 219.919 L 249.718 210.888 L 209.263 205.493 L 213.582 212.921 L 207.745 215.106 L 211.156 218.576 L 207.357 221.702 L 212.395 233.073 L 233.495 236.599 L 228.8 238.796 L 236.258 241.367 L 203.205 237.288 L 204.494 241.232 L 196.984 242.77 L 203.855 252.083 L 280.972 262.065 Z " fill="rgb(166,112,50)"/><path d=" M 240.174 382.467 L 204.935 401.901 L 200.515 401.05 L 204.738 394.006 L 199.404 394.669 L 201.781 392.301 L 196.984 390.525 L 226.849 373.085 L 231.624 372.584 L 229.269 377.229 L 237.712 375.731 L 234.707 380.102 L 243.383 377.324 L 240.174 382.467 Z " fill="rgb(212,144,71)"/><path d=" M 170.691 355.036 L 173.742 356.306 L 171.812 358.337 L 234.57 357.961 L 240.091 351.572 L 233.208 347.583 L 237.741 344.258 L 181.621 350.873 L 185.39 351.894 L 170.691 355.036 Z " fill="rgb(231,208,160)"/><path d=" M 147.01 260.512 L 178.52 298.371 L 173.592 298.131 L 172.925 302.61 L 167.143 302.688 L 166.158 310.473 L 148.166 297.305 L 148.273 303.082 L 145.327 301.81 L 144.005 308.042 L 113.766 280.543 L 118.335 281.106 L 122.152 268.598 L 125.854 269.678 L 126.156 266.148 L 133.58 267.063 L 131.778 259.615 L 145.042 265.978 L 147.01 260.512 Z " fill="rgb(223,168,98)"/><path d=" M 135.985 64.883 L 137.982 67.175 L 140.502 62.918 L 148.261 100.761 L 149.771 97.019 L 153.409 100.082 L 147.204 64.686 L 151.657 68.086 L 157.955 62.106 L 160.768 64.749 L 164.011 61.307 L 174.053 117.637 L 164.768 106.794 L 165.694 120.831 L 161.237 116.229 L 159.33 126.305 L 151.415 118.85 L 150.927 132.68 L 135.985 64.883 Z " fill="rgb(157,92,28)"/><path d=" M 293.016 223.948 L 295.504 227.398 L 299.267 226.148 L 300.281 229.559 L 304.22 228.389 L 292.771 261.23 L 296.594 257.962 L 296.994 266.028 L 283.277 306.708 L 282.721 301.341 L 277.443 306.412 L 277.941 296.834 L 269.647 304.803 L 281.167 266.152 L 275.758 271.042 L 293.016 223.948 Z " fill="rgb(221,156,91)"/><path d=" M 116.202 341.145 L 109.275 343.273 L 110.436 340.711 L 97.25 339.276 L 98.138 337.317 L 86.923 336.412 L 102.499 299.053 L 97.735 299.577 L 97.566 295.141 L 91.852 296.91 L 85.464 289.656 L 99.528 251.342 L 104.09 258.623 L 108.742 254.475 L 110.224 259.109 L 114.76 257.203 L 122.477 266.956 L 115.772 287.271 L 119.903 284.139 L 118.705 291.937 L 130.487 260.786 L 133.377 263.764 L 138.234 257.833 L 143.277 268.25 L 116.202 341.145 Z " fill="rgb(172,93,36)"/><path d=" M 104.986 34.468 L 129.992 2.938 L 129.885 -1.563 L 122.239 1.435 L 123.777 -3.715 L 121.047 -1.764 L 120.091 -6.789 L 97.942 19.772 L 96.657 24.398 L 101.628 22.845 L 98.751 30.923 L 103.56 28.684 L 99.382 36.779 L 104.986 34.468 Z " fill="rgb(195,128,57)"/><path d=" M 215.869 288.912 L 214.015 286.178 L 212.411 288.475 L 200.221 226.911 L 205.376 220.223 L 210.662 226.169 L 213.013 221.062 L 217.761 277.371 L 216.007 273.882 L 215.869 288.912 Z " fill="rgb(182,109,37)"/><path d=" M 71.222 355.263 L 91.929 310.57 L 87.229 312.07 L 85.431 307.913 L 79.824 309.326 L 76.869 302.057 L 62.872 319.411 L 61.489 313.801 L 58.969 315.789 L 56.087 310.107 L 33.944 344.461 L 38.214 342.741 L 45.121 353.846 L 48.421 351.849 L 49.621 355.183 L 56.56 352.388 L 56.734 360.049 L 67.915 350.487 L 71.222 355.263 Z " fill="rgb(225,176,110)"/><path d=" M 165.413 333.423 L 167.114 335.942 L 162.351 337.281 L 196.923 354.518 L 192.919 355.013 L 194.943 359.318 L 162.335 344.213 L 164.475 349.391 L 157.075 353.938 L 158.906 357.336 L 154.746 359.585 L 206.594 383.784 L 198.506 372.021 L 211.832 376.528 L 208.532 371.036 L 218.759 371.786 L 213.591 362.22 L 227.082 365.308 L 165.413 333.423 Z " fill="rgb(202,133,63)"/><path d=" M 112.414 348.859 L 75.132 333.708 L 73.011 329.737 L 81.143 328.586 L 77.27 324.858 L 80.607 325.214 L 78.968 320.369 L 111.317 332.598 L 114.712 335.994 L 109.62 337.088 L 116.098 342.706 L 110.81 343.121 L 118.43 348.115 L 112.414 348.859 Z " fill="rgb(212,144,71)"/><path d=" M 52.381 313.819 L 53.314 316.989 L 50.521 316.768 L 90.315 365.298 L 98.754 365.567 L 97.522 357.708 L 102.959 359.137 L 62.495 319.692 L 64.075 323.263 L 52.381 313.819 Z " fill="rgb(231,208,160)"/><path d=" M 111.836 267.686 L 102.251 316.001 L 99.336 312.021 L 95.435 314.322 L 91.736 309.878 L 85.066 314.012 L 83.974 291.743 L 79.552 295.463 L 78.686 292.372 L 73.011 295.268 L 75.347 254.462 L 77.786 258.367 L 89.907 253.459 L 91.398 257.017 L 94.331 255.029 L 98.293 261.374 L 102.946 255.286 L 106.35 269.598 L 111.836 267.686 Z " fill="rgb(223,168,98)"/><path d=" M 64.67 438.637 L 58.656 434.593 L 61.378 433.883 L 54.193 422.734 L 56.274 422.191 L 49.919 412.906 L 88.754 401.496 L 85.348 398.123 L 88.689 395.199 L 83.717 391.873 L 85.334 382.343 L 123.958 369.156 L 121.172 377.284 L 127.323 378.288 L 124.655 382.356 L 128.991 384.681 L 126.27 396.817 L 106.263 404.394 L 111.297 405.632 L 104.484 409.609 L 136.106 399.157 L 135.611 403.277 L 143.277 403.319 L 138.355 413.794 L 64.67 438.637 Z " fill="rgb(208,148,77)"/><path d=" M 141.989 341.785 L 141.102 344.692 L 137.064 341.834 L 145.43 379.548 L 142.525 376.748 L 140.454 381.03 L 131.667 346.185 L 128.99 351.106 L 120.8 348.218 L 119.311 351.78 L 114.945 349.962 L 128.776 405.484 L 132.825 391.795 L 137.711 404.987 L 139.901 398.966 L 145.755 407.385 L 149.936 397.348 L 156.028 409.775 L 141.989 341.785 Z " fill="rgb(202,133,63)"/><path d=" M 182.162 130.262 L 183.15 90.032 L 186.115 86.644 L 190.067 93.843 L 192.185 88.902 L 193.032 92.149 L 196.984 88.902 L 196.984 123.487 L 195.008 127.863 L 192.185 123.487 L 189.22 131.533 L 186.962 126.733 L 184.985 135.626 L 182.162 130.262 Z " fill="rgb(212,144,71)"/><path d=" M 31.081 63.264 L 28.446 65.258 L 27.665 62.567 L -3.658 116.951 L -0.925 124.94 L 5.991 121.008 L 6.576 126.599 L 29.164 74.802 L 26.382 77.541 L 31.081 63.264 Z " fill="rgb(231,208,160)"/><path d=" M 47.16 37.847 L -1.423 45.966 L 1.27 41.831 L -2.262 38.996 L 0.587 33.965 L -5.639 29.188 L 14.805 20.292 L 9.762 17.471 L 12.346 15.568 L 7.631 11.284 L 46.627 -0.961 L 43.836 2.7 L 52.713 12.304 L 49.913 14.956 L 52.81 16.997 L 48.275 22.946 L 55.615 25.145 L 43.432 33.391 L 47.16 37.847 Z " fill="rgb(223,168,98)"/><path d=" M 230.072 51.586 L 230.516 54.593 L 234.935 52.369 L 221.041 88.415 L 224.332 86.08 L 225.741 90.622 L 239.623 57.476 L 241.537 62.741 L 250.066 61.106 L 251.007 64.85 L 255.595 63.703 L 233.645 116.543 L 231.681 102.404 L 224.884 114.72 L 223.615 108.44 L 216.571 115.893 L 213.933 105.345 L 206.057 116.725 L 230.072 51.586 Z " fill="rgb(157,92,28)"/><path d=" M 164.409 -1.846 L 164.641 2.401 L 168.483 3.38 L 167.496 6.799 L 171.443 7.94 L 144.079 29.407 L 149.062 28.719 L 145.045 35.725 L 111.541 62.567 L 113.969 57.749 L 106.789 59.169 L 112.378 51.375 L 101.094 53.606 L 131.654 27.287 L 124.462 28.484 L 164.409 -1.846 Z " fill="rgb(221,156,91)"/><path d=" M 107.91 208.611 L 109.565 201.556 L 111.192 203.85 L 119.08 193.188 L 120.324 194.942 L 126.761 185.714 L 151.168 218.004 L 153.118 213.626 L 157.034 215.717 L 158.387 209.89 L 167.873 208.033 L 193.867 239.498 L 185.279 239.766 L 186.515 245.875 L 181.766 244.818 L 181.124 249.696 L 168.81 251.442 L 154.649 235.408 L 155.271 240.554 L 149.141 235.588 L 170.1 261.47 L 166.071 262.464 L 168.743 269.649 L 157.204 268.75 L 107.91 208.611 Z " fill="rgb(172,93,36)"/><path d=" M 240.732 143.303 L 278.802 130.257 L 281.141 126.411 L 273.086 124.807 L 277.161 121.302 L 273.81 121.471 L 275.717 116.725 L 242.735 127.129 L 239.156 130.33 L 244.179 131.706 L 237.397 136.954 L 242.654 137.664 L 234.767 142.224 L 240.732 143.303 Z " fill="rgb(195,128,57)"/><path d=" M 203.614 133.462 L 206.911 133.239 L 205.736 130.696 L 265.046 151.215 L 268.221 159.039 L 260.422 160.605 L 263.646 165.211 L 212.627 140.916 L 216.524 141.16 L 203.614 133.462 Z " fill="rgb(182,109,37)"/><path d=" M 135.487 245.419 L 163.639 285.837 L 164.714 281.022 L 169.21 281.566 L 170.817 276.012 L 178.585 277.125 L 170.657 256.287 L 176.199 257.922 L 175.753 254.743 L 182.113 255.12 L 163.613 218.674 L 162.945 223.229 L 149.872 223.594 L 149.933 227.45 L 146.449 226.805 L 145.363 234.206 L 138.66 230.494 L 141.279 244.971 L 135.487 245.419 Z " fill="rgb(225,176,110)"/><path d=" M 301.775 218.128 L 298.742 218.327 L 299.987 213.539 L 267.668 234.701 L 269.259 230.993 L 264.522 230.57 L 294.009 210.029 L 288.458 209.266 L 288.264 200.583 L 284.405 200.45 L 284.562 195.724 L 237.519 228.294 L 251.755 227.241 L 241.143 236.476 L 247.549 236.396 L 241.745 244.849 L 252.611 245.21 L 243.142 255.303 L 301.775 218.128 Z " fill="rgb(202,133,63)"/><path d=" M 152.469 317.866 L 155.594 314.979 L 159.033 316.952 L 160.705 313.811 L 164.333 315.741 L 159.643 281.279 L 162.739 285.242 L 164.735 277.417 L 159.381 234.822 L 157.77 239.971 L 153.605 233.951 L 152.188 243.437 L 145.644 233.978 L 149.249 274.148 L 144.92 268.28 L 152.469 317.866 Z " fill="rgb(206,153,87)"/><path d=" M 295.226 210.407 L 300.334 205.267 L 297.527 205.102 L 302.397 192.764 L 300.25 192.638 L 304.671 182.291 L 264.356 178.68 L 267.037 174.708 L 263.19 172.492 L 267.417 168.26 L 263.972 159.229 L 223.516 153.834 L 227.835 161.262 L 221.999 163.448 L 225.409 166.917 L 221.61 170.043 L 226.648 181.415 L 247.748 184.94 L 243.053 187.137 L 250.512 189.708 L 217.458 185.63 L 218.748 189.574 L 211.237 191.111 L 218.109 200.424 L 295.226 210.407 Z " fill="rgb(166,112,50)"/><path d=" M 133.666 387.522 L 136.716 388.792 L 134.786 390.823 L 197.544 390.447 L 203.065 384.058 L 196.183 380.069 L 200.715 376.744 L 144.596 383.359 L 148.364 384.38 L 133.666 387.522 Z " fill="rgb(231,208,160)"/><path d=" M 43.925 503.357 L 46.976 504.627 L 45.046 506.659 L 107.804 506.282 L 113.325 499.893 L 106.442 495.904 L 110.975 492.579 L 54.855 499.194 L 58.624 500.215 L 43.925 503.357 Z " fill="rgb(231,208,160)"/><path d=" M 240.708 243.184 L 272.218 281.043 L 267.29 280.803 L 266.623 285.282 L 260.841 285.36 L 259.856 293.145 L 241.865 279.977 L 241.972 285.754 L 239.025 284.482 L 237.703 290.714 L 207.465 263.215 L 212.034 263.778 L 215.85 251.27 L 219.552 252.351 L 219.854 248.82 L 227.278 249.735 L 225.476 242.288 L 238.741 248.65 L 240.708 243.184 Z " fill="rgb(223,168,98)"/><path d=" M 192.952 52.885 L 191.097 50.15 L 189.493 52.447 L 177.303 -9.117 L 182.458 -15.804 L 187.744 -9.859 L 190.095 -14.966 L 194.843 41.343 L 193.089 37.854 L 192.952 52.885 Z " fill="rgb(182,109,37)"/><path d=" M 189.187 -6.64 L 190.888 -4.121 L 186.126 -2.782 L 220.697 14.454 L 216.693 14.95 L 218.717 19.254 L 186.11 4.15 L 188.249 9.328 L 180.85 13.875 L 182.681 17.273 L 178.52 19.522 L 230.369 43.721 L 222.28 31.958 L 235.606 36.465 L 232.306 30.973 L 242.533 31.723 L 237.366 22.157 L 250.856 25.245 L 189.187 -6.64 Z " fill="rgb(202,133,63)"/><path d=" M 181.762 410.955 L 144.48 395.804 L 142.359 391.833 L 150.491 390.682 L 146.618 386.954 L 149.955 387.31 L 148.316 382.465 L 180.665 394.694 L 184.06 398.09 L 178.968 399.184 L 185.446 404.802 L 180.158 405.217 L 187.778 410.211 L 181.762 410.955 Z " fill="rgb(212,144,71)"/><path d=" M 160.66 302.057 L 161.593 305.227 L 158.8 305.005 L 198.593 353.535 L 207.033 353.804 L 205.801 345.945 L 211.237 347.375 L 170.774 307.93 L 172.353 311.501 L 160.66 302.057 Z " fill="rgb(231,208,160)"/><path d=" M 234.998 153.354 L 225.413 201.669 L 222.498 197.689 L 218.597 199.99 L 214.898 195.546 L 208.228 199.68 L 207.136 177.411 L 202.714 181.131 L 201.848 178.041 L 196.173 180.936 L 198.509 140.13 L 200.948 144.035 L 213.069 139.128 L 214.56 142.685 L 217.493 140.697 L 221.455 147.042 L 226.108 140.954 L 229.513 155.266 L 234.998 153.354 Z " fill="rgb(223,168,98)"/><path d=" M 89.558 345.31 L 88.672 348.217 L 84.633 345.359 L 93 383.073 L 90.094 380.273 L 88.023 384.555 L 79.237 349.71 L 76.56 354.632 L 68.369 351.744 L 66.881 355.306 L 62.515 353.488 L 76.345 409.009 L 80.394 395.32 L 85.28 408.512 L 87.47 402.491 L 93.324 410.91 L 97.505 400.874 L 103.597 413.3 L 89.558 345.31 Z " fill="rgb(202,133,63)"/><path d=" M 74.377 350.564 L 75.903 343.479 L 73.45 344.856 L 70.891 331.841 L 69.015 332.894 L 67.153 321.797 L 31.265 340.518 L 31.379 335.726 L 26.944 335.937 L 28.218 330.093 L 20.443 324.35 L -16.525 341.644 L -8.88 345.566 L -12.614 350.556 L -7.87 351.636 L -9.381 356.319 L 0.998 363.172 L 20.664 354.751 L 17.897 359.135 L 25.563 357.274 L -4.463 371.681 L -1.249 374.305 L -6.742 379.652 L 4.07 383.784 L 74.377 350.564 Z " fill="rgb(166,112,50)"/><path d=" M 147.568 16.448 L 176.774 44.133 L 177.303 48.603 L 169.311 46.715 L 171.56 51.597 L 168.582 50.05 L 168.345 55.16 L 142.669 31.991 L 140.744 27.592 L 145.884 28.428 L 141.896 20.837 L 146.973 22.375 L 141.694 14.95 L 147.568 16.448 Z " fill="rgb(212,144,71)"/><path d=" M 149.386 56.73 L 149.672 53.438 L 152.192 54.661 L 132.8 -5.027 L 125.038 -8.351 L 123.324 -0.582 L 118.781 -3.893 L 142.105 47.577 L 141.934 43.677 L 149.386 56.73 Z " fill="rgb(231,208,160)"/><path d=" M -9.77 160.112 L 16.749 118.603 L 18.015 123.372 L 22.485 122.649 L 24.313 128.135 L 32.03 126.713 L 24.939 147.851 L 30.412 145.996 L 30.093 149.19 L 36.432 148.56 L 19.399 185.714 L 18.55 181.189 L 5.474 181.346 L 5.381 177.49 L 1.925 178.274 L 0.545 170.922 L -6.005 174.898 L -3.965 160.328 L -9.77 160.112 Z " fill="rgb(223,168,98)"/><path d=" M 294.002 334.54 L 291.472 332.855 L 290.163 337.626 L 272.709 303.163 L 272.239 307.17 L 267.922 305.173 L 283.231 337.685 L 278.04 335.578 L 273.54 343.006 L 270.129 341.197 L 267.907 345.371 L 243.383 293.676 L 255.196 301.69 L 250.605 288.392 L 256.118 291.658 L 255.303 281.436 L 264.902 286.543 L 261.73 273.073 L 294.002 334.54 Z " fill="rgb(157,92,28)"/><path d=" M 223.916 262.482 L 220.607 259.809 L 217.307 262.006 L 215.43 258.982 L 211.938 261.149 L 214.333 226.451 L 211.505 230.611 L 208.995 222.935 L 211.512 180.079 L 213.462 185.11 L 217.218 178.827 L 219.261 188.199 L 225.163 178.326 L 224.23 218.647 L 228.16 212.505 L 223.916 262.482 Z " fill="rgb(221,156,91)"/><path d=" M 274.743 99.751 L 278.872 105.707 L 276.079 105.378 L 278.71 118.378 L 276.574 118.126 L 279.113 129.087 L 238.789 125.574 L 240.733 129.956 L 236.557 131.462 L 239.977 136.37 L 235.001 144.657 L 194.227 142.876 L 199.781 136.32 L 194.418 133.146 L 198.384 130.328 L 195.192 126.584 L 202.145 116.272 L 223.537 116.5 L 219.299 113.514 L 227.093 112.29 L 193.836 110.511 L 195.797 106.854 L 188.673 104.024 L 197.07 96.06 L 274.743 99.751 Z " fill="rgb(208,148,77)"/><path d=" M 262.352 134.547 L 246.533 171.551 L 247.822 175.864 L 254.408 170.958 L 254.281 176.332 L 256.401 173.731 L 258.647 178.326 L 273.018 146.869 L 273.039 142.068 L 268.652 144.875 L 269.299 136.325 L 265.251 139.752 L 267.149 130.842 L 262.352 134.547 Z " fill="rgb(195,128,57)"/><path d=" M 245.901 67.488 L 243.858 70.084 L 246.533 70.916 L 191.566 101.203 L 183.63 98.319 L 187.692 91.479 L 182.113 90.788 L 234.329 69.186 L 231.537 71.915 L 245.901 67.488 Z " fill="rgb(182,109,37)"/><path d=" M 97.632 55.785 L 48.764 49.608 L 51.619 53.632 L 48.203 56.605 L 51.25 61.52 L 45.22 66.541 L 66.002 74.615 L 61.075 77.635 L 63.734 79.433 L 59.193 83.902 L 98.646 94.583 L 95.712 91.035 L 104.198 81.086 L 101.295 78.548 L 104.108 76.393 L 99.34 70.629 L 106.587 68.139 L 94.084 60.385 L 97.632 55.785 Z " fill="rgb(225,176,110)"/><path d=" M -4.419 246.665 L -2.534 244.28 L 0.186 248.412 L 6.126 210.241 L 7.813 213.906 L 11.301 210.672 L 6.797 246.325 L 11.082 242.716 L 17.659 248.388 L 20.342 245.612 L 23.746 248.895 L 31.081 192.149 L 22.325 203.425 L 22.578 189.359 L 18.346 194.169 L 15.959 184.196 L 8.411 192.022 L 7.261 178.23 L -4.419 246.665 Z " fill="rgb(202,133,63)"/><path d=" M 165.225 11.717 L 165.274 15.97 L 161.506 17.201 L 162.718 20.547 L 158.854 21.947 L 187.582 41.553 L 182.565 41.197 L 187.038 47.921 L 222.248 72.481 L 219.505 67.836 L 226.764 68.777 L 220.671 61.37 L 232.077 62.848 L 199.839 38.613 L 207.095 39.33 L 165.225 11.717 Z " fill="rgb(206,153,87)"/><path d=" M 35.265 200.059 L 35.659 207.295 L 37.662 205.322 L 43.559 217.202 L 45.092 215.693 L 49.811 225.907 L 79.5 198.395 L 80.653 203.047 L 84.875 201.675 L 85.186 207.649 L 94.199 211.141 L 125.306 184.72 L 116.898 182.95 L 119.186 177.153 L 114.325 177.361 L 114.549 172.446 L 102.732 168.568 L 85.978 181.871 L 87.493 176.914 L 80.587 180.729 L 105.759 158.921 L 101.967 157.237 L 105.857 150.631 L 94.339 149.493 L 35.265 200.059 Z " fill="rgb(166,112,50)"/><path d=" M 165.827 58.779 L 175.007 19.597 L 178.6 16.885 L 181 24.74 L 184.081 20.335 L 184.247 23.687 L 188.779 21.315 L 181.72 55.171 L 178.892 59.052 L 177.022 54.191 L 172.477 61.463 L 171.246 56.304 L 167.496 64.606 L 165.827 58.779 Z " fill="rgb(212,144,71)"/><path d=" M 232.742 25.569 L 229.755 26.983 L 229.54 24.19 L 187.776 71.035 L 188.82 79.414 L 196.393 76.976 L 195.825 82.569 L 228.51 36.473 L 225.228 38.587 L 232.742 25.569 Z " fill="rgb(231,208,160)"/><path d=" M 155.794 167.403 L 106.577 165.434 L 110.057 161.936 L 107.178 158.44 L 110.994 154.096 L 105.874 148.149 L 127.703 143.613 L 123.342 139.822 L 126.261 138.487 L 122.52 133.33 L 163.193 129.303 L 159.714 132.318 L 166.444 143.531 L 163.161 145.556 L 165.581 148.145 L 159.927 153.044 L 166.664 156.695 L 153.054 162.28 L 155.794 167.403 Z " fill="rgb(223,168,98)"/><path d=" M 216.368 287.342 L 213.328 287.288 L 214.801 292.011 L 181.507 272.42 L 183.274 276.047 L 178.562 276.696 L 208.998 295.803 L 203.491 296.831 L 203.712 305.513 L 199.864 305.83 L 200.247 310.544 L 151.699 280.263 L 165.969 280.633 L 154.927 271.916 L 161.33 271.69 L 155.127 263.524 L 165.964 262.643 L 156.023 253.015 L 216.368 287.342 Z " fill="rgb(157,92,28)"/><path d=" M 157.451 268.494 L 153.223 268.03 L 151.631 271.661 L 148.419 270.128 L 146.648 273.837 L 129.936 243.335 L 129.802 248.363 L 123.545 243.256 L 102.533 205.82 L 106.889 209.003 L 106.66 201.687 L 113.438 208.473 L 113.078 196.977 L 134.056 231.423 L 134.05 224.131 L 157.451 268.494 Z " fill="rgb(221,156,91)"/><path d=" M 74.845 33.562 L 77.906 26.994 L 79.03 29.572 L 88.929 20.744 L 89.789 22.715 L 97.974 14.995 L 115.275 51.588 L 118.078 47.7 L 121.485 50.546 L 123.999 45.118 L 133.664 45.236 L 152.688 81.344 L 144.226 79.854 L 144.189 86.086 L 139.756 84.082 L 138.132 88.727 L 125.721 87.923 L 115.13 69.335 L 114.689 74.5 L 109.702 68.387 L 124.936 98.003 L 120.789 98.153 L 121.938 105.733 L 110.826 102.497 L 74.845 33.562 Z " fill="rgb(208,148,77)"/><path d=" M 65.648 216.991 L 72.304 256.68 L 75.717 259.615 L 78.614 251.931 L 81.407 256.523 L 81.788 253.189 L 86.159 255.846 L 81.278 221.607 L 78.704 217.554 L 76.526 222.285 L 72.456 214.738 L 70.897 219.808 L 67.686 211.283 L 65.648 216.991 Z " fill="rgb(195,128,57)"/><path d=" M 154.828 199.875 L 158.101 200.33 L 157.47 197.6 L 211.342 229.794 L 212.854 238.101 L 204.899 238.042 L 207.115 243.208 L 162.13 209.011 L 165.894 210.046 L 154.828 199.875 Z " fill="rgb(182,109,37)"/><path d=" M 44.757 117.434 L 64.066 162.748 L 66.101 158.254 L 70.391 159.704 L 73.099 154.595 L 80.476 157.27 L 76.968 135.252 L 82.06 137.984 L 82.272 134.782 L 88.421 136.449 L 77.75 96.994 L 76.166 101.316 L 63.294 99.005 L 62.567 102.792 L 59.287 101.45 L 56.714 108.474 L 50.91 103.471 L 50.519 118.178 L 44.757 117.434 Z " fill="rgb(225,176,110)"/><path d=" M 167.945 178.838 L 164.935 178.413 L 167.131 173.98 L 131.174 188.1 L 133.488 184.795 L 128.937 183.414 L 161.996 169.324 L 156.718 167.444 L 158.3 158.904 L 154.55 157.987 L 155.668 153.391 L 102.967 175.673 L 117.119 177.548 L 104.845 184.423 L 111.133 185.652 L 103.724 192.742 L 114.289 195.314 L 102.959 203.262 L 167.945 178.838 Z " fill="rgb(202,133,63)"/><path d=" M 235.555 340.974 L 271.779 323.445 L 276.148 324.53 L 271.555 331.339 L 276.917 330.961 L 274.418 333.2 L 279.113 335.228 L 248.361 351.053 L 243.566 351.298 L 246.165 346.785 L 237.655 347.831 L 240.889 343.626 L 232.077 345.938 L 235.555 340.974 Z " fill="rgb(212,144,71)"/><path d=" M 301.775 86.211 L 298.796 84.78 L 300.832 82.855 L 238.143 79.887 L 232.289 85.972 L 238.95 90.322 L 234.246 93.401 L 290.638 89.785 L 286.93 88.566 L 301.775 86.211 Z " fill="rgb(231,208,160)"/><path d=" M 28.673 101.223 L -0.775 61.739 L 4.133 62.241 L 5.038 57.804 L 10.815 58.034 L 12.214 50.313 L 29.479 64.421 L 29.679 58.646 L 32.554 60.073 L 34.206 53.921 L 62.936 82.992 L 58.404 82.186 L 53.927 94.473 L 50.287 93.197 L 49.798 96.706 L 42.433 95.397 L 43.836 102.93 L 30.929 95.869 L 28.673 101.223 Z " fill="rgb(223,168,98)"/><path d=" M 36.233 122.999 L 43.263 121.243 L 41.968 123.739 L 55.058 125.874 L 54.067 127.783 L 65.218 129.285 L 47.673 165.761 L 52.459 165.492 L 52.391 169.931 L 58.191 168.468 L 64.183 176.052 L 48.099 213.563 L 43.93 206.049 L 39.064 209.943 L 37.831 205.237 L 33.2 206.899 L 26.013 196.748 L 33.791 176.819 L 29.5 179.727 L 31.111 172.004 L 17.687 202.483 L 14.96 199.355 L 9.793 205.019 L 5.313 194.347 L 36.233 122.999 Z " fill="rgb(208,148,77)"/><path d=" M 193.345 94.583 L 191.78 91.977 L 196.607 90.893 L 163.003 71.839 L 167.028 71.557 L 165.236 67.151 L 196.993 83.972 L 195.132 78.687 L 202.763 74.541 L 201.116 71.05 L 205.391 69.026 L 154.905 42.099 L 162.356 54.276 L 149.288 49.065 L 152.291 54.725 L 142.118 53.431 L 146.769 63.259 L 133.462 59.457 L 193.345 94.583 Z " fill="rgb(202,133,63)"/><path d=" M 264.778 252.679 L 293.984 280.364 L 294.514 284.835 L 286.521 282.946 L 288.77 287.828 L 285.793 286.282 L 285.555 291.391 L 259.879 268.222 L 257.954 263.824 L 263.094 264.659 L 259.107 257.068 L 264.183 258.607 L 258.904 251.182 L 264.778 252.679 Z " fill="rgb(212,144,71)"/><path d=" M 204.659 294.606 L 204.944 291.313 L 207.465 292.536 L 188.073 232.848 L 180.31 229.525 L 178.596 237.294 L 174.053 233.983 L 197.377 285.453 L 197.207 281.552 L 204.659 294.606 Z " fill="rgb(231,208,160)"/><path d=" M 103.597 321.229 L 130.117 279.72 L 131.382 284.489 L 135.853 283.766 L 137.68 289.252 L 145.398 287.83 L 138.306 308.968 L 143.779 307.113 L 143.46 310.307 L 149.8 309.677 L 132.767 346.831 L 131.918 342.306 L 118.841 342.463 L 118.748 338.607 L 115.292 339.391 L 113.913 332.039 L 107.363 336.015 L 109.403 321.445 L 103.597 321.229 Z " fill="rgb(223,168,98)"/><path d=" M 251.667 364.948 L 249.137 363.263 L 247.828 368.034 L 230.374 333.571 L 229.904 337.578 L 225.587 335.581 L 240.896 368.093 L 235.705 365.987 L 231.205 373.414 L 227.794 371.605 L 225.572 375.78 L 201.048 324.084 L 212.861 332.099 L 208.27 318.801 L 213.783 322.066 L 212.968 311.844 L 222.567 316.952 L 219.395 303.481 L 251.667 364.948 Z " fill="rgb(157,92,28)"/><path d=" M 211.905 353.804 L 208.596 351.132 L 205.296 353.329 L 203.419 350.305 L 199.927 352.471 L 202.321 317.774 L 199.494 321.934 L 196.984 314.258 L 199.501 271.402 L 201.451 276.432 L 205.207 270.15 L 207.25 279.521 L 213.152 269.649 L 212.219 309.969 L 216.149 303.828 L 211.905 353.804 Z " fill="rgb(221,156,91)"/><path d=" M 81.789 286.1 L 85.917 292.056 L 83.124 291.727 L 85.756 304.727 L 83.62 304.475 L 86.159 315.436 L 45.835 311.923 L 47.779 316.305 L 43.603 317.811 L 47.022 322.719 L 42.047 331.006 L 1.272 329.225 L 6.826 322.669 L 1.463 319.495 L 5.429 316.677 L 2.237 312.933 L 9.191 302.621 L 30.582 302.849 L 26.345 299.863 L 34.139 298.639 L 0.882 296.86 L 2.843 293.203 L -4.282 290.373 L 4.116 282.409 L 81.789 286.1 Z " fill="rgb(208,148,77)"/><path d=" M 193.48 270.456 L 177.661 307.459 L 178.95 311.773 L 185.536 306.867 L 185.409 312.241 L 187.529 309.639 L 189.775 314.235 L 204.146 282.778 L 204.166 277.976 L 199.78 280.783 L 200.427 272.233 L 196.379 275.66 L 198.276 266.75 L 193.48 270.456 Z " fill="rgb(195,128,57)"/><path d=" M 156.212 189.582 L 154.169 192.179 L 156.844 193.011 L 101.877 223.297 L 93.941 220.414 L 98.003 213.574 L 92.424 212.882 L 144.64 191.28 L 141.848 194.009 L 156.212 189.582 Z " fill="rgb(182,109,37)"/><path d=" M 115.349 154.529 L 66.481 148.353 L 69.336 152.376 L 65.92 155.35 L 68.967 160.264 L 62.936 165.286 L 83.719 173.36 L 78.792 176.379 L 81.45 178.178 L 76.91 182.646 L 116.362 193.328 L 113.428 189.78 L 121.915 179.831 L 119.011 177.292 L 121.825 175.138 L 117.057 169.373 L 124.304 166.884 L 111.801 159.13 L 115.349 154.529 Z " fill="rgb(225,176,110)"/><path d=" M 220.639 343.08 L 222.524 340.695 L 225.244 344.827 L 231.184 306.655 L 232.871 310.321 L 236.358 307.087 L 231.855 342.739 L 236.14 339.13 L 242.717 344.802 L 245.4 342.027 L 248.804 345.31 L 256.139 288.564 L 247.383 299.839 L 247.636 285.773 L 243.404 290.583 L 241.017 280.611 L 233.469 288.436 L 232.319 274.645 L 220.639 343.08 Z " fill="rgb(202,133,63)"/><path d=" M 154.908 102.93 L 154.957 107.183 L 151.189 108.414 L 152.401 111.76 L 148.537 113.161 L 177.265 132.766 L 172.248 132.41 L 176.721 139.134 L 211.931 163.695 L 209.188 159.049 L 216.447 159.99 L 210.353 152.583 L 221.76 154.061 L 189.522 129.827 L 196.778 130.544 L 154.908 102.93 Z " fill="rgb(206,153,87)"/><path d=" M 95.108 356.617 L 95.501 363.853 L 97.505 361.88 L 103.402 373.76 L 104.934 372.251 L 109.654 382.465 L 139.343 354.953 L 140.495 359.605 L 144.717 358.233 L 145.028 364.207 L 154.041 367.699 L 185.149 341.278 L 176.741 339.508 L 179.028 333.711 L 174.167 333.919 L 174.391 329.004 L 162.574 325.126 L 145.821 338.429 L 147.335 333.472 L 140.43 337.287 L 165.601 315.479 L 161.809 313.795 L 165.699 307.189 L 154.182 306.051 L 95.108 356.617 Z " fill="rgb(166,112,50)"/><path d=" M 69.954 174.152 L 66.967 175.566 L 66.752 172.772 L 24.988 219.618 L 26.033 227.997 L 33.605 225.559 L 33.037 231.152 L 65.722 185.056 L 62.44 187.17 L 69.954 174.152 Z " fill="rgb(231,208,160)"/><path d=" M 24.838 278.107 L -24.379 276.138 L -20.9 272.641 L -23.778 269.145 L -19.963 264.8 L -25.082 258.853 L -3.253 254.318 L -7.614 250.527 L -4.695 249.192 L -8.437 244.035 L 32.237 240.008 L 28.758 243.022 L 35.488 254.235 L 32.205 256.26 L 34.624 258.849 L 28.971 263.748 L 35.708 267.399 L 22.098 272.985 L 24.838 278.107 Z " fill="rgb(223,168,98)"/><path d=" M 10.917 257.578 L 14.19 258.033 L 13.559 255.303 L 67.432 287.497 L 68.943 295.804 L 60.988 295.745 L 63.205 300.912 L 18.219 266.714 L 21.984 267.749 L 10.917 257.578 Z " fill="rgb(182,109,37)"/><path d=" M 60.992 121.506 L 57.983 121.081 L 60.179 116.648 L 24.221 130.768 L 26.536 127.463 L 21.984 126.082 L 55.043 111.993 L 49.766 110.112 L 51.347 101.573 L 47.597 100.655 L 48.715 96.06 L -3.986 118.342 L 10.166 120.217 L -2.108 127.092 L 4.18 128.32 L -3.228 135.411 L 7.336 137.983 L -3.994 145.93 L 60.992 121.506 Z " fill="rgb(202,133,63)"/><path d=" M 131.555 18.552 L 167.779 1.023 L 172.148 2.109 L 167.555 8.918 L 172.917 8.54 L 170.418 10.779 L 175.113 12.807 L 144.361 28.632 L 139.566 28.877 L 142.165 24.364 L 133.654 25.41 L 136.889 21.205 L 128.077 23.517 L 131.555 18.552 Z " fill="rgb(212,144,71)"/><path d=" M 109.588 45.694 L 106.609 44.264 L 108.645 42.338 L 45.956 39.37 L 40.102 45.455 L 46.763 49.806 L 42.059 52.885 L 98.451 49.269 L 94.743 48.049 L 109.588 45.694 Z " fill="rgb(231,208,160)"/><path d=" M 197.814 233.7 L 168.365 194.216 L 173.273 194.718 L 174.178 190.281 L 179.956 190.511 L 181.355 182.79 L 198.619 196.898 L 198.82 191.123 L 201.694 192.55 L 203.347 186.398 L 232.077 215.469 L 227.545 214.663 L 223.067 226.95 L 219.428 225.674 L 218.938 229.183 L 211.573 227.874 L 212.976 235.407 L 200.07 228.346 L 197.814 233.7 Z " fill="rgb(223,168,98)"/><path d=" M 506.354 107.304 L 457.771 115.423 L 460.463 111.289 L 456.931 108.454 L 459.78 103.422 L 453.554 98.645 L 473.998 89.749 L 468.955 86.928 L 471.54 85.025 L 466.825 80.741 L 505.82 68.496 L 503.03 72.158 L 511.906 81.761 L 509.106 84.413 L 512.003 86.454 L 507.469 92.404 L 514.809 94.603 L 502.625 102.849 L 506.354 107.304 Z " fill="rgb(223,168,98)"/><path d=" M 271.386 508.255 L 309.456 495.21 L 311.795 491.363 L 303.74 489.76 L 307.815 486.254 L 304.464 486.423 L 306.371 481.677 L 273.389 492.082 L 269.81 495.283 L 274.833 496.659 L 268.051 501.906 L 273.308 502.616 L 265.421 507.177 L 271.386 508.255 Z " fill="rgb(195,128,57)"/><path d=" M 477.508 283.462 L 509.018 321.321 L 504.091 321.08 L 503.424 325.56 L 497.642 325.637 L 496.656 333.423 L 478.665 320.254 L 478.772 326.032 L 475.826 324.759 L 474.503 330.991 L 444.265 303.492 L 448.834 304.055 L 452.65 291.547 L 456.353 292.628 L 456.654 289.097 L 464.079 290.013 L 462.276 282.565 L 475.541 288.928 L 477.508 283.462 Z " fill="rgb(223,168,98)"/><path d=" M 330.585 444.631 L 332.241 437.576 L 333.867 439.87 L 341.756 429.208 L 343 430.962 L 349.437 421.734 L 373.843 454.024 L 375.794 449.646 L 379.71 451.737 L 381.063 445.911 L 390.548 444.053 L 416.542 475.518 L 407.954 475.786 L 409.19 481.895 L 404.441 480.838 L 403.8 485.716 L 391.486 487.462 L 377.324 471.428 L 377.946 476.574 L 371.816 471.608 L 392.775 497.49 L 388.746 498.484 L 391.418 505.669 L 379.879 504.77 L 330.585 444.631 Z " fill="rgb(172,93,36)"/><path d=" M 458.294 360.119 L 486.447 400.537 L 487.521 395.722 L 492.017 396.266 L 493.625 390.712 L 501.393 391.825 L 493.464 370.987 L 499.007 372.622 L 498.561 369.443 L 504.92 369.82 L 486.42 333.374 L 485.752 337.929 L 472.68 338.294 L 472.741 342.15 L 469.256 341.505 L 468.171 348.906 L 461.467 345.194 L 464.086 359.671 L 458.294 360.119 Z " fill="rgb(225,176,110)"/><path d=" M 508.398 155.321 L 505.359 155.268 L 506.831 159.991 L 473.537 140.4 L 475.304 144.027 L 470.592 144.676 L 501.028 163.782 L 495.521 164.811 L 495.742 173.493 L 491.894 173.81 L 492.277 178.524 L 443.729 148.242 L 458 148.613 L 446.958 139.896 L 453.36 139.67 L 447.158 131.504 L 457.995 130.623 L 448.053 120.995 L 508.398 155.321 Z " fill="rgb(157,92,28)"/><path d=" M 450.316 17.974 L 453.589 18.429 L 452.958 15.699 L 506.83 47.892 L 508.342 56.2 L 500.387 56.141 L 502.603 61.307 L 457.618 27.11 L 461.382 28.145 L 450.316 17.974 Z " fill="rgb(182,109,37)"/><path d=" M 465.232 508.255 L 465.517 504.963 L 468.038 506.186 L 448.646 446.498 L 440.884 443.175 L 439.17 450.943 L 434.626 447.632 L 457.95 499.103 L 457.78 495.202 L 465.232 508.255 Z " fill="rgb(231,208,160)"/><path d=" M 474.755 152.127 L 445.307 112.643 L 450.215 113.146 L 451.12 108.708 L 456.897 108.939 L 458.296 101.217 L 475.56 115.325 L 475.761 109.55 L 478.636 110.978 L 480.288 104.825 L 509.018 133.896 L 504.486 133.091 L 500.008 145.378 L 496.369 144.101 L 495.88 147.611 L 488.515 146.301 L 489.918 153.834 L 477.011 146.774 L 474.755 152.127 Z " fill="rgb(223,168,98)"/><path d=" M 158.645 139.128 L 157.081 136.522 L 161.908 135.438 L 128.303 116.384 L 132.328 116.102 L 130.537 111.696 L 162.293 128.517 L 160.433 123.232 L 168.064 119.086 L 166.416 115.595 L 170.691 113.571 L 120.205 86.644 L 127.656 98.821 L 114.588 93.61 L 117.591 99.27 L 107.419 97.976 L 112.069 107.804 L 98.762 104.002 L 158.645 139.128 Z " fill="rgb(202,133,63)"/><path d=" M 44.282 285.917 L 48.519 291.797 L 49.14 289.054 L 60.517 295.872 L 60.992 293.774 L 70.478 299.825 L 80.622 260.641 L 84.104 263.935 L 86.917 260.501 L 90.403 265.362 L 99.875 263.437 L 111.802 224.405 L 103.768 227.453 L 102.565 221.338 L 98.585 224.137 L 96.121 219.878 L 84.08 222.992 L 77.157 243.234 L 75.756 238.243 L 72.002 245.182 L 81.422 213.237 L 77.32 213.866 L 77.029 206.206 L 66.719 211.464 L 44.282 285.917 Z " fill="rgb(166,112,50)"/><path d=" M 206.567 465.352 L 207.555 425.122 L 210.519 421.734 L 214.472 428.933 L 216.589 423.993 L 217.436 427.239 L 221.389 423.993 L 221.389 458.577 L 219.412 462.953 L 216.589 458.577 L 213.625 466.623 L 211.366 461.823 L 209.39 470.717 L 206.567 465.352 Z " fill="rgb(212,144,71)"/><path d=" M 503.092 35.865 L 500.457 37.859 L 499.676 35.168 L 468.354 89.552 L 471.086 97.541 L 478.002 93.609 L 478.588 99.2 L 501.175 47.403 L 498.393 50.142 L 503.092 35.865 Z " fill="rgb(231,208,160)"/><path d=" M 363.662 40.871 L 315.079 48.99 L 317.771 44.856 L 314.24 42.021 L 317.088 36.989 L 310.862 32.212 L 331.306 23.316 L 326.263 20.495 L 328.848 18.592 L 324.133 14.308 L 363.128 2.063 L 360.338 5.724 L 369.215 15.328 L 366.414 17.98 L 369.311 20.021 L 364.777 25.971 L 372.117 28.17 L 359.933 36.415 L 363.662 40.871 Z " fill="rgb(223,168,98)"/><path d=" M 477.569 -20.853 L 478.013 -17.846 L 482.432 -20.07 L 468.538 15.976 L 471.829 13.641 L 473.238 18.184 L 487.12 -14.963 L 489.033 -9.698 L 497.563 -11.333 L 498.504 -7.589 L 503.092 -8.736 L 481.142 44.104 L 479.178 29.965 L 472.381 42.281 L 471.112 36.001 L 464.068 43.454 L 461.43 32.906 L 453.554 44.286 L 477.569 -20.853 Z " fill="rgb(157,92,28)"/><path d=" M 430.971 87.746 L 431.204 91.993 L 435.046 92.972 L 434.058 96.391 L 438.006 97.532 L 410.642 118.999 L 415.624 118.311 L 411.607 125.317 L 378.103 152.159 L 380.532 147.341 L 373.352 148.761 L 378.94 140.967 L 367.657 143.198 L 398.217 116.879 L 391.024 118.076 L 430.971 87.746 Z " fill="rgb(221,156,91)"/><path d=" M 344.932 131.895 L 346.588 124.84 L 348.215 127.134 L 356.103 116.471 L 357.347 118.226 L 363.784 108.998 L 388.19 141.288 L 390.141 136.91 L 394.057 139.001 L 395.41 133.174 L 404.896 131.316 L 430.89 162.782 L 422.301 163.05 L 423.537 169.158 L 418.788 168.102 L 418.147 172.98 L 405.833 174.726 L 391.671 158.691 L 392.293 163.838 L 386.163 158.871 L 407.122 184.754 L 403.094 185.747 L 405.765 192.933 L 394.227 192.034 L 344.932 131.895 Z " fill="rgb(208,148,77)"/><path d=" M 361.571 185.714 L 399.641 172.668 L 401.98 168.822 L 393.925 167.219 L 398 163.713 L 394.649 163.882 L 396.556 159.136 L 363.574 169.54 L 359.995 172.741 L 365.018 174.117 L 358.236 179.365 L 363.493 180.075 L 355.606 184.635 L 361.571 185.714 Z " fill="rgb(195,128,57)"/><path d=" M 416.843 100.932 L 420.14 100.709 L 418.965 98.166 L 478.275 118.685 L 481.45 126.509 L 473.651 128.075 L 476.875 132.68 L 425.856 108.386 L 429.753 108.63 L 416.843 100.932 Z " fill="rgb(182,109,37)"/><path d=" M 284.587 250.973 L 312.74 291.391 L 313.814 286.576 L 318.31 287.12 L 319.917 281.566 L 327.685 282.679 L 319.757 261.841 L 325.3 263.476 L 324.854 260.297 L 331.213 260.674 L 312.713 224.228 L 312.045 228.783 L 298.973 229.148 L 299.034 233.004 L 295.549 232.359 L 294.464 239.76 L 287.76 236.048 L 290.379 250.525 L 284.587 250.973 Z " fill="rgb(225,176,110)"/><path d=" M 378.793 355.827 L 375.76 356.026 L 377.005 351.238 L 344.687 372.4 L 346.278 368.692 L 341.54 368.269 L 371.027 347.728 L 365.477 346.965 L 365.282 338.282 L 361.424 338.149 L 361.58 333.423 L 314.537 365.993 L 328.773 364.94 L 318.161 374.175 L 324.568 374.094 L 318.763 382.548 L 329.63 382.909 L 320.16 393.002 L 378.793 355.827 Z " fill="rgb(202,133,63)"/><path d=" M 361.482 381.65 L 364.606 378.764 L 368.045 380.737 L 369.717 377.596 L 373.345 379.526 L 368.655 345.064 L 371.752 349.027 L 373.747 341.201 L 368.393 298.607 L 366.782 303.755 L 362.617 297.736 L 361.2 307.222 L 354.657 297.763 L 358.261 337.932 L 353.932 332.065 L 361.482 381.65 Z " fill="rgb(206,153,87)"/><path d=" M 489.455 117.599 L 494.564 112.46 L 491.756 112.294 L 496.626 99.957 L 494.479 99.831 L 498.901 89.484 L 458.586 85.873 L 461.267 81.901 L 457.42 79.685 L 461.647 75.453 L 458.201 66.422 L 417.746 61.027 L 422.065 68.455 L 416.228 70.64 L 419.639 74.11 L 415.84 77.236 L 420.878 88.608 L 441.978 92.133 L 437.283 94.33 L 444.741 96.901 L 411.688 92.823 L 412.977 96.766 L 405.467 98.304 L 412.338 107.617 L 489.455 117.599 Z " fill="rgb(166,112,50)"/><path d=" M 499.019 334.007 L 463.78 353.441 L 459.359 352.589 L 463.583 345.546 L 458.249 346.209 L 460.625 343.84 L 455.828 342.064 L 485.693 324.624 L 490.469 324.124 L 488.113 328.769 L 496.556 327.271 L 493.551 331.642 L 502.227 328.864 L 499.019 334.007 Z " fill="rgb(212,144,71)"/><path d=" M 435.521 212.447 L 438.571 213.717 L 436.641 215.749 L 499.399 215.372 L 504.92 208.984 L 498.038 204.994 L 502.57 201.669 L 446.451 208.285 L 450.219 209.305 L 435.521 212.447 Z " fill="rgb(231,208,160)"/><path d=" M 411.842 282.175 L 443.352 320.034 L 438.424 319.794 L 437.757 324.274 L 431.975 324.351 L 430.99 332.136 L 412.998 318.968 L 413.106 324.746 L 410.159 323.473 L 408.837 329.705 L 378.599 302.206 L 383.167 302.769 L 386.984 290.261 L 390.686 291.342 L 390.988 287.811 L 398.412 288.726 L 396.61 281.279 L 409.874 287.642 L 411.842 282.175 Z " fill="rgb(223,168,98)"/><path d=" M 383.163 47.296 L 385.159 49.588 L 387.679 45.331 L 395.439 83.174 L 396.948 79.432 L 400.587 82.495 L 394.382 47.099 L 398.835 50.499 L 405.132 44.519 L 407.945 47.163 L 411.189 43.721 L 421.231 100.05 L 411.946 89.207 L 412.871 103.245 L 408.414 98.643 L 406.507 108.718 L 398.593 101.263 L 398.105 115.094 L 383.163 47.296 Z " fill="rgb(157,92,28)"/><path d=" M 451.263 349.444 L 453.751 352.894 L 457.514 351.644 L 458.528 355.055 L 462.467 353.885 L 451.018 386.726 L 454.841 383.458 L 455.241 391.524 L 441.524 432.203 L 440.968 426.837 L 435.69 431.908 L 436.188 422.33 L 427.894 430.299 L 439.414 391.648 L 434.005 396.537 L 451.263 349.444 Z " fill="rgb(221,156,91)"/><path d=" M 447.766 122.733 L 440.839 124.861 L 442 122.299 L 428.814 120.864 L 429.702 118.905 L 418.487 118 L 434.064 80.641 L 429.299 81.164 L 429.13 76.728 L 423.416 78.498 L 417.029 71.243 L 431.092 32.929 L 435.655 40.21 L 440.306 36.063 L 441.788 40.697 L 446.324 38.79 L 454.042 48.544 L 447.337 68.859 L 451.467 65.726 L 450.27 73.524 L 462.051 42.373 L 464.941 45.351 L 469.798 39.421 L 474.841 49.838 L 447.766 122.733 Z " fill="rgb(208,148,77)"/><path d=" M 349.818 19.865 L 374.825 -11.665 L 374.718 -16.165 L 367.072 -13.168 L 368.61 -18.318 L 365.88 -16.367 L 364.924 -21.392 L 342.774 5.169 L 341.49 9.795 L 346.46 8.243 L 343.584 16.321 L 348.392 14.081 L 344.215 22.177 L 349.818 19.865 Z " fill="rgb(195,128,57)"/><path d=" M 490.236 363.212 L 488.381 360.477 L 486.777 362.775 L 474.587 301.211 L 479.742 294.523 L 485.028 300.468 L 487.379 295.362 L 492.127 351.67 L 490.373 348.182 L 490.236 363.212 Z " fill="rgb(182,109,37)"/><path d=" M 152.28 449.916 L 172.987 405.223 L 168.287 406.723 L 166.489 402.566 L 160.882 403.979 L 157.926 396.71 L 143.93 414.064 L 142.546 408.454 L 140.027 410.442 L 137.145 404.76 L 115.002 439.115 L 119.272 437.394 L 126.179 448.499 L 129.479 446.502 L 130.678 449.836 L 137.617 447.041 L 137.792 454.702 L 148.973 445.14 L 152.28 449.916 Z " fill="rgb(225,176,110)"/><path d=" M 416.654 267.504 L 418.355 270.023 L 413.593 271.363 L 448.164 288.599 L 444.16 289.095 L 446.184 293.399 L 413.577 278.295 L 415.716 283.473 L 408.317 288.019 L 410.148 291.418 L 405.987 293.666 L 457.836 317.866 L 449.747 306.103 L 463.073 310.61 L 459.773 305.118 L 470 305.868 L 464.833 296.302 L 478.323 299.39 L 416.654 267.504 Z " fill="rgb(202,133,63)"/><path d=" M 390.284 396.71 L 353.002 381.559 L 350.882 377.588 L 359.013 376.437 L 355.141 372.709 L 358.477 373.065 L 356.838 368.22 L 389.188 380.449 L 392.582 383.845 L 387.49 384.939 L 393.968 390.557 L 388.68 390.972 L 396.3 395.966 L 390.284 396.71 Z " fill="rgb(212,144,71)"/><path d=" M 366.451 181.215 L 367.384 184.384 L 364.591 184.163 L 404.385 232.693 L 412.824 232.962 L 411.592 225.103 L 417.029 226.533 L 376.565 187.088 L 378.144 190.658 L 366.451 181.215 Z " fill="rgb(231,208,160)"/><path d=" M 366.385 252.697 L 356.799 301.012 L 353.884 297.032 L 349.983 299.333 L 346.284 294.889 L 339.614 299.023 L 338.523 276.754 L 334.1 280.474 L 333.235 277.383 L 327.56 280.279 L 329.896 239.473 L 332.334 243.378 L 344.456 238.47 L 345.946 242.028 L 348.88 240.04 L 352.842 246.385 L 357.494 240.297 L 360.899 254.609 L 366.385 252.697 Z " fill="rgb(223,168,98)"/><path d=" M 177.532 446.225 L 171.518 442.182 L 174.24 441.471 L 167.056 430.322 L 169.137 429.779 L 162.781 420.494 L 201.616 409.084 L 198.21 405.711 L 201.551 402.787 L 196.579 399.461 L 198.196 389.932 L 236.82 376.744 L 234.034 384.872 L 240.185 385.876 L 237.517 389.945 L 241.853 392.27 L 239.132 404.405 L 219.125 411.982 L 224.159 413.22 L 217.346 417.198 L 248.968 406.746 L 248.473 410.865 L 256.139 410.907 L 251.217 421.382 L 177.532 446.225 Z " fill="rgb(208,148,77)"/><path d=" M 252.993 370.647 L 252.106 373.554 L 248.068 370.697 L 256.434 408.41 L 253.529 405.611 L 251.458 409.893 L 242.671 375.047 L 239.994 379.969 L 231.804 377.081 L 230.315 380.643 L 225.949 378.825 L 239.78 434.346 L 243.829 420.657 L 248.715 433.849 L 250.905 427.828 L 256.759 436.247 L 260.94 426.211 L 267.032 438.637 L 252.993 370.647 Z " fill="rgb(202,133,63)"/><path d=" M 465.908 104.867 L 466.896 64.636 L 469.861 61.248 L 473.813 68.448 L 475.931 63.507 L 476.778 66.754 L 480.73 63.507 L 480.73 98.091 L 478.754 102.467 L 475.931 98.091 L 472.966 106.137 L 470.708 101.338 L 468.731 110.231 L 465.908 104.867 Z " fill="rgb(212,144,71)"/><path d=" M 416.843 -26.556 L 414.208 -24.562 L 413.427 -27.253 L 382.104 27.131 L 384.837 35.12 L 391.753 31.188 L 392.338 36.779 L 414.926 -15.018 L 412.144 -12.278 L 416.843 -26.556 Z " fill="rgb(231,208,160)"/><path d=" M 256.966 59.065 L 208.383 67.184 L 211.075 63.05 L 207.544 60.215 L 210.392 55.183 L 204.166 50.406 L 224.61 41.51 L 219.567 38.689 L 222.152 36.787 L 217.437 32.502 L 256.432 20.257 L 253.642 23.919 L 262.519 33.522 L 259.718 36.174 L 262.615 38.215 L 258.081 44.165 L 265.421 46.364 L 253.238 54.61 L 256.966 59.065 Z " fill="rgb(223,168,98)"/><path d=" M 393.599 361.445 L 394.043 364.452 L 398.462 362.228 L 384.568 398.273 L 387.859 395.938 L 389.268 400.481 L 403.15 367.334 L 405.063 372.6 L 413.593 370.965 L 414.534 374.709 L 419.122 373.562 L 397.172 426.402 L 395.208 412.262 L 388.41 424.579 L 387.142 418.299 L 380.098 425.751 L 377.46 415.204 L 369.584 426.583 L 393.599 361.445 Z " fill="rgb(157,92,28)"/><path d=" M 414.196 31.703 L 414.429 35.95 L 418.27 36.928 L 417.283 40.347 L 421.231 41.488 L 393.866 62.955 L 398.849 62.267 L 394.832 69.274 L 361.328 96.115 L 363.756 91.298 L 356.576 92.718 L 362.165 84.923 L 350.882 87.155 L 381.441 60.836 L 374.249 62.032 L 414.196 31.703 Z " fill="rgb(221,156,91)"/><path d=" M 383.163 231.995 L 384.819 224.94 L 386.445 227.235 L 394.334 216.572 L 395.578 218.326 L 402.015 209.098 L 426.421 241.389 L 428.371 237.01 L 432.288 239.101 L 433.641 233.275 L 443.126 231.417 L 469.12 262.882 L 460.532 263.151 L 461.768 269.259 L 457.019 268.202 L 456.378 273.08 L 444.064 274.826 L 429.902 258.792 L 430.524 263.938 L 424.394 258.972 L 445.353 284.854 L 441.324 285.848 L 443.996 293.033 L 432.457 292.134 L 383.163 231.995 Z " fill="rgb(208,148,77)"/><path d=" M 449.317 143.16 L 487.386 130.114 L 489.726 126.268 L 481.671 124.665 L 485.745 121.159 L 482.394 121.328 L 484.302 116.582 L 451.32 126.986 L 447.741 130.188 L 452.763 131.564 L 445.982 136.811 L 451.238 137.521 L 443.352 142.081 L 449.317 143.16 Z " fill="rgb(195,128,57)"/><path d=" M 329.746 392.076 L 333.043 391.853 L 331.868 389.309 L 391.177 409.829 L 394.353 417.653 L 386.554 419.219 L 389.778 423.824 L 338.759 399.529 L 342.655 399.774 L 329.746 392.076 Z " fill="rgb(182,109,37)"/><path d=" M 286.933 386.165 L 315.086 426.583 L 316.16 421.768 L 320.656 422.312 L 322.264 416.758 L 330.032 417.871 L 322.103 397.033 L 327.646 398.668 L 327.2 395.489 L 333.56 395.866 L 315.059 359.42 L 314.391 363.975 L 301.319 364.34 L 301.38 368.196 L 297.895 367.551 L 296.81 374.952 L 290.107 371.24 L 292.726 385.717 L 286.933 386.165 Z " fill="rgb(225,176,110)"/><path d=" M 511.156 244.104 L 508.122 244.303 L 509.368 239.515 L 477.049 260.677 L 478.64 256.969 L 473.903 256.546 L 503.39 236.005 L 497.839 235.242 L 497.644 226.559 L 493.786 226.426 L 493.943 221.7 L 446.9 254.27 L 461.136 253.217 L 450.524 262.452 L 456.93 262.372 L 451.125 270.825 L 461.992 271.186 L 452.523 281.279 L 511.156 244.104 Z " fill="rgb(202,133,63)"/><path d=" M 466.762 279.491 L 469.887 276.605 L 473.325 278.578 L 474.997 275.437 L 478.625 277.367 L 473.935 242.905 L 477.032 246.868 L 479.028 239.042 L 473.674 196.448 L 472.062 201.596 L 467.898 195.577 L 466.481 205.063 L 459.937 195.604 L 463.542 235.773 L 459.213 229.906 L 466.762 279.491 Z " fill="rgb(206,153,87)"/><path d=" M 501.017 194.969 L 506.126 189.829 L 503.318 189.664 L 508.188 177.327 L 506.041 177.2 L 510.462 166.854 L 470.147 163.243 L 472.829 159.27 L 468.982 157.055 L 473.208 152.822 L 469.763 143.791 L 429.307 138.396 L 433.626 145.825 L 427.79 148.01 L 431.2 151.479 L 427.401 154.606 L 432.439 165.977 L 453.54 169.503 L 448.844 171.699 L 456.303 174.271 L 423.249 170.192 L 424.539 174.136 L 417.029 175.673 L 423.9 184.986 L 501.017 194.969 Z " fill="rgb(166,112,50)"/><path d=" M 353.211 373.443 L 356.262 374.713 L 354.332 376.744 L 417.09 376.368 L 422.611 369.979 L 415.728 365.99 L 420.261 362.665 L 364.141 369.28 L 367.91 370.3 L 353.211 373.443 Z " fill="rgb(231,208,160)"/><path d=" M 438.71 201.381 L 470.221 239.24 L 465.293 239 L 464.626 243.479 L 458.844 243.557 L 457.858 251.342 L 439.867 238.174 L 439.974 243.951 L 437.028 242.679 L 435.706 248.911 L 405.467 221.411 L 410.036 221.975 L 413.853 209.467 L 417.555 210.547 L 417.856 207.017 L 425.281 207.932 L 423.478 200.484 L 436.743 206.847 L 438.71 201.381 Z " fill="rgb(223,168,98)"/><path d=" M 283.87 473.331 L 282.015 470.596 L 280.411 472.894 L 268.221 411.33 L 273.376 404.642 L 278.662 410.587 L 281.013 405.481 L 285.761 461.789 L 284.007 458.301 L 283.87 473.331 Z " fill="rgb(182,109,37)"/><path d=" M 444.72 -7.437 L 446.421 -4.918 L 441.658 -3.579 L 476.23 13.658 L 472.226 14.153 L 474.25 18.458 L 441.642 3.353 L 443.782 8.531 L 436.382 13.078 L 438.213 16.476 L 434.052 18.725 L 485.901 42.924 L 477.812 31.161 L 491.139 35.668 L 487.839 30.177 L 498.066 30.927 L 492.898 21.36 L 506.389 24.448 L 444.72 -7.437 Z " fill="rgb(202,133,63)"/><path d=" M 495.016 302.327 L 457.735 287.176 L 455.614 283.205 L 463.746 282.054 L 459.873 278.326 L 463.209 278.682 L 461.57 273.837 L 493.92 286.066 L 497.314 289.462 L 492.223 290.556 L 498.701 296.174 L 493.413 296.589 L 501.032 301.583 L 495.016 302.327 Z " fill="rgb(212,144,71)"/><path d=" M 453.192 245.342 L 454.125 248.512 L 451.332 248.29 L 491.126 296.821 L 499.565 297.09 L 498.333 289.23 L 503.77 290.66 L 463.307 251.215 L 464.886 254.786 L 453.192 245.342 Z " fill="rgb(231,208,160)"/><path d=" M 450.302 124.458 L 440.716 172.772 L 437.801 168.792 L 433.901 171.093 L 430.201 166.649 L 423.531 170.784 L 422.44 148.515 L 418.018 152.234 L 417.152 149.144 L 411.477 152.039 L 413.813 111.233 L 416.251 115.138 L 428.373 110.231 L 429.864 113.788 L 432.797 111.8 L 436.759 118.146 L 441.411 112.057 L 444.816 126.37 L 450.302 124.458 Z " fill="rgb(223,168,98)"/><path d=" M 397.312 226.615 L 396.425 229.523 L 392.387 226.665 L 400.753 264.379 L 397.848 261.579 L 395.777 265.861 L 386.99 231.016 L 384.313 235.937 L 376.123 233.049 L 374.634 236.611 L 370.268 234.793 L 384.099 290.314 L 388.148 276.625 L 393.034 289.818 L 395.224 283.797 L 401.078 292.216 L 405.259 282.179 L 411.351 294.606 L 397.312 226.615 Z " fill="rgb(202,133,63)"/><path d=" M 346.497 356.11 L 348.023 349.026 L 345.571 350.402 L 343.011 337.388 L 341.136 338.44 L 339.273 327.344 L 303.386 346.064 L 303.499 341.273 L 299.065 341.484 L 300.338 335.639 L 292.563 329.897 L 255.595 347.191 L 263.24 351.113 L 259.506 356.103 L 264.25 357.183 L 262.74 361.865 L 273.118 368.719 L 292.784 360.298 L 290.017 364.681 L 297.684 362.82 L 267.657 377.227 L 270.871 379.851 L 265.379 385.199 L 276.19 389.33 L 346.497 356.11 Z " fill="rgb(166,112,50)"/><path d=" M 430.699 -3.35 L 459.905 24.336 L 460.435 28.806 L 452.442 26.917 L 454.692 31.799 L 451.714 30.253 L 451.476 35.363 L 425.8 12.194 L 423.875 7.795 L 429.015 8.63 L 425.028 1.039 L 430.104 2.578 L 424.825 -4.847 L 430.699 -3.35 Z " fill="rgb(212,144,71)"/><path d=" M 328.025 56.73 L 328.31 53.438 L 330.831 54.661 L 311.439 -5.027 L 303.677 -8.351 L 301.963 -0.582 L 297.42 -3.893 L 320.744 47.577 L 320.573 43.677 L 328.025 56.73 Z " fill="rgb(231,208,160)"/><path d=" M 318.388 98.238 L 344.908 56.73 L 346.173 61.498 L 350.644 60.776 L 352.472 66.261 L 360.189 64.839 L 353.097 85.977 L 358.57 84.123 L 358.251 87.316 L 364.591 86.686 L 347.558 123.84 L 346.709 119.316 L 333.632 119.473 L 333.539 115.617 L 330.083 116.401 L 328.704 109.048 L 322.154 113.024 L 324.194 98.455 L 318.388 98.238 Z " fill="rgb(223,168,98)"/><path d=" M 459.362 398.943 L 456.832 397.258 L 455.523 402.029 L 438.069 367.566 L 437.599 371.573 L 433.282 369.577 L 448.591 402.088 L 443.4 399.982 L 438.9 407.409 L 435.49 405.6 L 433.268 409.775 L 408.743 358.079 L 420.556 366.094 L 415.966 352.796 L 421.478 356.061 L 420.664 345.839 L 430.262 350.947 L 427.09 337.476 L 459.362 398.943 Z " fill="rgb(157,92,28)"/><path d=" M 359.271 426.583 L 355.962 423.911 L 352.662 426.107 L 350.785 423.084 L 347.293 425.25 L 349.687 390.553 L 346.86 394.713 L 344.35 387.037 L 346.867 344.181 L 348.817 349.211 L 352.573 342.929 L 354.615 352.3 L 360.518 342.428 L 359.585 382.748 L 363.515 376.607 L 359.271 426.583 Z " fill="rgb(221,156,91)"/><path d=" M 423.524 4.084 L 427.652 10.039 L 424.859 9.71 L 427.491 22.71 L 425.355 22.458 L 427.894 33.419 L 387.57 29.907 L 389.514 34.288 L 385.338 35.795 L 388.757 40.703 L 383.782 48.99 L 343.007 47.209 L 348.561 40.653 L 343.199 37.478 L 347.164 34.66 L 343.972 30.916 L 350.926 20.604 L 372.317 20.832 L 368.08 17.846 L 375.874 16.623 L 342.617 14.844 L 344.578 11.187 L 337.454 8.357 L 345.851 0.392 L 423.524 4.084 Z " fill="rgb(208,148,77)"/><path d=" M 341.612 371.926 L 325.794 408.929 L 327.083 413.242 L 333.669 408.337 L 333.542 413.71 L 335.662 411.109 L 337.908 415.705 L 352.279 384.248 L 352.299 379.446 L 347.913 382.253 L 348.56 373.703 L 344.512 377.13 L 346.409 368.22 L 341.612 371.926 Z " fill="rgb(195,128,57)"/><path d=" M 489.761 370.927 L 487.717 373.524 L 490.393 374.355 L 435.426 404.642 L 427.49 401.758 L 431.552 394.918 L 425.973 394.227 L 478.189 372.625 L 475.397 375.354 L 489.761 370.927 Z " fill="rgb(182,109,37)"/><path d=" M 292.254 56.489 L 243.386 50.313 L 246.241 54.336 L 242.825 57.31 L 245.872 62.224 L 239.841 67.245 L 260.624 75.319 L 255.697 78.339 L 258.355 80.137 L 253.815 84.606 L 293.267 95.287 L 290.333 91.74 L 298.82 81.791 L 295.916 79.252 L 298.73 77.098 L 293.962 71.333 L 301.208 68.843 L 288.706 61.09 L 292.254 56.489 Z " fill="rgb(225,176,110)"/><path d=" M 309.433 255.853 L 311.317 253.468 L 314.038 257.6 L 319.978 219.428 L 321.664 223.094 L 325.152 219.86 L 320.648 255.512 L 324.933 251.903 L 331.51 257.575 L 334.193 254.8 L 337.598 258.083 L 344.932 201.337 L 336.177 212.612 L 336.43 198.546 L 332.198 203.356 L 329.811 193.384 L 322.262 201.209 L 321.113 187.418 L 309.433 255.853 Z " fill="rgb(202,133,63)"/><path d=" M 167.041 427.453 L 167.09 431.706 L 163.322 432.937 L 164.534 436.283 L 160.671 437.683 L 189.398 457.289 L 184.381 456.933 L 188.854 463.657 L 224.064 488.217 L 221.321 483.572 L 228.58 484.513 L 222.487 477.106 L 233.893 478.584 L 201.655 454.349 L 208.911 455.066 L 167.041 427.453 Z " fill="rgb(206,153,87)"/><path d=" M 237.519 122.661 L 237.912 129.898 L 239.916 127.924 L 245.813 139.805 L 247.345 138.295 L 252.065 148.509 L 281.754 120.997 L 282.906 125.65 L 287.128 124.278 L 287.439 130.251 L 296.452 133.743 L 327.56 107.322 L 319.152 105.552 L 321.439 99.755 L 316.579 99.963 L 316.802 95.048 L 304.985 91.17 L 288.232 104.474 L 289.746 99.516 L 282.841 103.331 L 308.012 81.524 L 304.22 79.839 L 308.11 73.233 L 296.593 72.096 L 237.519 122.661 Z " fill="rgb(166,112,50)"/><path d=" M 466.847 172.403 L 476.026 133.221 L 479.62 130.51 L 482.019 138.364 L 485.101 133.96 L 485.267 137.311 L 489.799 134.939 L 482.74 168.795 L 479.912 172.676 L 478.041 167.816 L 473.497 175.087 L 472.266 169.928 L 468.516 178.23 L 466.847 172.403 Z " fill="rgb(212,144,71)"/><path d=" M 177.661 417.084 L 174.674 418.498 L 174.459 415.705 L 132.695 462.55 L 133.74 470.929 L 141.312 468.491 L 140.744 474.084 L 173.429 427.988 L 170.147 430.102 L 177.661 417.084 Z " fill="rgb(231,208,160)"/><path d=" M 427.346 214.019 L 378.128 212.05 L 381.608 208.552 L 378.729 205.056 L 382.545 200.712 L 377.425 194.765 L 399.255 190.229 L 394.894 186.438 L 397.812 185.103 L 394.071 179.946 L 434.745 175.919 L 431.266 178.934 L 437.995 190.147 L 434.713 192.172 L 437.132 194.761 L 431.479 199.66 L 438.215 203.311 L 424.605 208.896 L 427.346 214.019 Z " fill="rgb(223,168,98)"/><path d=" M 419.122 350.327 L 416.083 350.274 L 417.556 354.997 L 384.262 335.406 L 386.028 339.033 L 381.316 339.682 L 411.752 358.788 L 406.245 359.817 L 406.466 368.499 L 402.619 368.816 L 403.001 373.53 L 354.453 343.248 L 368.724 343.619 L 357.682 334.902 L 364.085 334.676 L 357.882 326.51 L 368.719 325.629 L 358.777 316.001 L 419.122 350.327 Z " fill="rgb(157,92,28)"/><path d=" M 387.911 100.271 L 383.683 99.807 L 382.09 103.438 L 378.878 101.906 L 377.108 105.614 L 360.396 75.113 L 360.261 80.141 L 354.005 75.034 L 332.993 37.597 L 337.349 40.78 L 337.12 33.464 L 343.898 40.25 L 343.538 28.754 L 364.516 63.2 L 364.509 55.909 L 387.911 100.271 Z " fill="rgb(221,156,91)"/><path d=" M 273.039 37.107 L 276.1 30.539 L 277.224 33.117 L 287.123 24.289 L 287.982 26.26 L 296.167 18.54 L 313.469 55.133 L 316.272 51.245 L 319.679 54.091 L 322.193 48.663 L 331.858 48.781 L 350.882 84.889 L 342.419 83.399 L 342.382 89.631 L 337.949 87.627 L 336.326 92.272 L 323.915 91.467 L 313.324 72.88 L 312.882 78.045 L 307.895 71.932 L 323.13 101.548 L 318.983 101.698 L 320.132 109.277 L 309.02 106.042 L 273.039 37.107 Z " fill="rgb(208,148,77)"/><path d=" M 404.037 382.453 L 410.693 422.141 L 414.106 425.077 L 417.003 417.392 L 419.796 421.984 L 420.177 418.651 L 424.548 421.307 L 419.667 387.069 L 417.093 383.016 L 414.916 387.746 L 410.845 380.199 L 409.287 385.269 L 406.075 376.744 L 404.037 382.453 Z " fill="rgb(195,128,57)"/><path d=" M 440.107 175.047 L 443.38 175.502 L 442.749 172.772 L 496.622 204.966 L 498.133 213.274 L 490.178 213.215 L 492.395 218.381 L 447.409 184.184 L 451.174 185.219 L 440.107 175.047 Z " fill="rgb(182,109,37)"/><path d=" M 238.875 357.811 L 258.184 403.125 L 260.219 398.631 L 264.51 400.081 L 267.217 394.972 L 274.594 397.647 L 271.086 375.63 L 276.178 378.361 L 276.391 375.159 L 282.539 376.826 L 271.868 337.371 L 270.284 341.694 L 257.413 339.382 L 256.685 343.17 L 253.406 341.827 L 250.832 348.851 L 245.028 343.849 L 244.637 358.555 L 238.875 357.811 Z " fill="rgb(225,176,110)"/><path d=" M 3.156 463.918 L 22.465 509.232 L 24.5 504.738 L 28.791 506.188 L 31.498 501.079 L 38.875 503.754 L 35.367 481.736 L 40.459 484.468 L 40.672 481.265 L 46.82 482.933 L 36.149 443.478 L 34.565 447.8 L 21.694 445.489 L 20.966 449.276 L 17.687 447.933 L 15.113 454.958 L 9.309 449.955 L 8.918 464.662 L 3.156 463.918 Z " fill="rgb(225,176,110)"/><path d=" M 407.82 311.283 L 404.811 310.859 L 407.007 306.426 L 371.049 320.546 L 373.364 317.241 L 368.812 315.86 L 401.871 301.77 L 396.593 299.89 L 398.175 291.35 L 394.425 290.433 L 395.543 285.837 L 342.842 308.119 L 356.994 309.994 L 344.72 316.869 L 351.008 318.098 L 343.6 325.188 L 354.164 327.76 L 342.834 335.707 L 407.82 311.283 Z " fill="rgb(202,133,63)"/><path d=" M 412.27 424.877 L 448.495 407.348 L 452.863 408.433 L 448.27 415.242 L 453.632 414.864 L 451.133 417.103 L 455.828 419.132 L 425.077 434.956 L 420.281 435.201 L 422.881 430.688 L 414.37 431.734 L 417.604 427.53 L 408.792 429.841 L 412.27 424.877 Z " fill="rgb(212,144,71)"/><path d=" M 230.916 312.376 L 227.938 310.945 L 229.973 309.019 L 167.284 306.051 L 161.431 312.137 L 168.091 316.487 L 163.388 319.566 L 219.78 315.95 L 216.071 314.73 L 230.916 312.376 Z " fill="rgb(231,208,160)"/><path d=" M 276.706 177.993 L 247.257 138.509 L 252.165 139.012 L 253.07 134.574 L 258.848 134.805 L 260.247 127.083 L 277.511 141.191 L 277.712 135.416 L 280.586 136.844 L 282.239 130.691 L 310.969 159.762 L 306.436 158.956 L 301.959 171.243 L 298.319 169.967 L 297.83 173.477 L 290.465 172.167 L 291.868 179.7 L 278.962 172.639 L 276.706 177.993 Z " fill="rgb(223,168,98)"/><path d=" M 241.179 -15.528 L 248.21 -17.283 L 246.914 -14.787 L 260.004 -12.652 L 259.013 -10.743 L 270.164 -9.242 L 252.619 27.235 L 257.405 26.966 L 257.337 31.405 L 263.137 29.942 L 269.13 37.526 L 253.045 75.037 L 248.876 67.523 L 244.011 71.417 L 242.777 66.711 L 238.146 68.372 L 230.959 58.222 L 238.737 38.293 L 234.446 41.201 L 236.057 33.478 L 222.633 63.957 L 219.906 60.829 L 214.739 66.492 L 210.259 55.821 L 241.179 -15.528 Z " fill="rgb(172,93,36)"/><path d=" M 447.794 211.956 L 446.229 209.35 L 451.056 208.266 L 417.452 189.212 L 421.477 188.93 L 419.685 184.524 L 451.441 201.345 L 449.581 196.06 L 457.212 191.914 L 455.565 188.423 L 459.839 186.399 L 409.354 159.472 L 416.804 171.649 L 403.737 166.438 L 406.74 172.098 L 396.567 170.804 L 401.218 180.632 L 387.911 176.83 L 447.794 211.956 Z " fill="rgb(202,133,63)"/><path d=" M 273.131 388.74 L 302.338 416.426 L 302.867 420.896 L 294.874 419.008 L 297.124 423.889 L 294.146 422.343 L 293.909 427.453 L 268.232 404.284 L 266.307 399.885 L 271.448 400.72 L 267.46 393.129 L 272.536 394.668 L 267.258 387.243 L 273.131 388.74 Z " fill="rgb(212,144,71)"/><path d=" M 474.334 398.503 L 474.62 395.211 L 477.141 396.434 L 457.748 336.746 L 449.986 333.423 L 448.272 341.191 L 443.729 337.88 L 467.053 389.35 L 466.882 385.45 L 474.334 398.503 Z " fill="rgb(231,208,160)"/><path d=" M 307.73 334.446 L 334.249 292.938 L 335.515 297.706 L 339.986 296.984 L 341.813 302.47 L 349.53 301.047 L 342.439 322.185 L 347.912 320.331 L 347.593 323.525 L 353.932 322.894 L 336.899 360.049 L 336.05 355.524 L 322.974 355.681 L 322.881 351.825 L 319.425 352.609 L 318.045 345.256 L 311.495 349.233 L 313.535 334.663 L 307.73 334.446 Z " fill="rgb(223,168,98)"/><path d=" M 495.926 351.811 L 493.396 350.126 L 492.087 354.897 L 474.633 320.434 L 474.163 324.441 L 469.846 322.445 L 485.155 354.956 L 479.964 352.85 L 475.464 360.278 L 472.054 358.468 L 469.831 362.643 L 445.307 310.947 L 457.12 318.962 L 452.53 305.664 L 458.042 308.929 L 457.227 298.707 L 466.826 303.815 L 463.654 290.344 L 495.926 351.811 Z " fill="rgb(157,92,28)"/><path d=" M 441.063 375.78 L 437.753 373.107 L 434.453 375.304 L 432.577 372.28 L 429.085 374.447 L 431.479 339.749 L 428.652 343.909 L 426.142 336.233 L 428.659 293.377 L 430.608 298.408 L 434.364 292.125 L 436.407 301.496 L 442.309 291.624 L 441.377 331.945 L 445.307 325.803 L 441.063 375.78 Z " fill="rgb(221,156,91)"/><path d=" M 363.287 279.218 L 367.416 285.174 L 364.622 284.844 L 367.254 297.844 L 365.118 297.592 L 367.657 308.554 L 327.333 305.041 L 329.277 309.422 L 325.101 310.929 L 328.521 315.837 L 323.545 324.124 L 282.77 322.343 L 288.325 315.787 L 282.962 312.613 L 286.928 309.795 L 283.736 306.051 L 290.689 295.739 L 312.081 295.967 L 307.843 292.981 L 315.637 291.757 L 282.38 289.978 L 284.341 286.321 L 277.217 283.491 L 285.614 275.527 L 363.287 279.218 Z " fill="rgb(172,93,36)"/><path d=" M 479.706 369.273 L 463.888 406.276 L 465.176 410.59 L 471.763 405.684 L 471.636 411.058 L 473.755 408.456 L 476.001 413.052 L 490.372 381.595 L 490.393 376.793 L 486.007 379.601 L 486.654 371.05 L 482.605 374.477 L 484.503 365.567 L 479.706 369.273 Z " fill="rgb(195,128,57)"/><path d=" M 482.91 271.216 L 480.867 273.813 L 483.542 274.644 L 428.575 304.931 L 420.639 302.047 L 424.701 295.207 L 419.122 294.516 L 471.338 272.914 L 468.546 275.643 L 482.91 271.216 Z " fill="rgb(182,109,37)"/><path d=" M 298.946 6.191 L 250.078 0.015 L 252.933 4.038 L 249.517 7.012 L 252.564 11.926 L 246.533 16.948 L 267.316 25.022 L 262.389 28.041 L 265.047 29.839 L 260.507 34.308 L 299.959 44.99 L 297.025 41.442 L 305.512 31.493 L 302.608 28.954 L 305.422 26.8 L 300.654 21.035 L 307.9 18.546 L 295.398 10.792 L 298.946 6.191 Z " fill="rgb(225,176,110)"/><path d=" M 74.091 497.174 L 74.535 500.181 L 78.954 497.957 L 65.06 534.003 L 68.351 531.668 L 69.76 536.21 L 83.642 503.064 L 85.555 508.329 L 94.085 506.694 L 95.026 510.438 L 99.614 509.291 L 77.663 562.131 L 75.7 547.992 L 68.902 560.308 L 67.634 554.028 L 60.59 561.481 L 57.952 550.933 L 50.076 562.313 L 74.091 497.174 Z " fill="rgb(157,92,28)"/><path d=" M 104.986 546.468 L 129.992 514.938 L 129.885 510.437 L 122.239 513.435 L 123.777 508.285 L 121.047 510.236 L 120.091 505.211 L 97.942 531.772 L 96.657 536.398 L 101.628 534.845 L 98.751 542.923 L 103.56 540.684 L 99.382 548.779 L 104.986 546.468 Z " fill="rgb(195,128,57)"/><path d=" M 47.16 549.847 L -1.423 557.966 L 1.27 553.831 L -2.262 550.996 L 0.587 545.965 L -5.639 541.188 L 14.805 532.292 L 9.762 529.471 L 12.346 527.568 L 7.631 523.284 L 46.627 511.039 L 43.836 514.7 L 52.713 524.304 L 49.913 526.956 L 52.81 528.997 L 48.275 534.946 L 55.615 537.145 L 43.432 545.391 L 47.16 549.847 Z " fill="rgb(223,168,98)"/><path d=" M 164.409 510.154 L 164.641 514.401 L 168.483 515.38 L 167.496 518.799 L 171.443 519.94 L 144.079 541.407 L 149.062 540.719 L 145.045 547.725 L 111.541 574.567 L 113.969 569.749 L 106.789 571.169 L 112.378 563.375 L 101.094 565.606 L 131.654 539.287 L 124.462 540.484 L 164.409 510.154 Z " fill="rgb(221,156,91)"/><path d=" M 192.952 564.885 L 191.097 562.15 L 189.493 564.447 L 177.303 502.883 L 182.458 496.196 L 187.744 502.141 L 190.095 497.034 L 194.843 553.343 L 193.089 549.854 L 192.952 564.885 Z " fill="rgb(182,109,37)"/><path d=" M 189.187 505.36 L 190.888 507.879 L 186.126 509.218 L 220.697 526.454 L 216.693 526.95 L 218.717 531.254 L 186.11 516.15 L 188.249 521.328 L 180.85 525.875 L 182.681 529.273 L 178.52 531.522 L 230.369 555.721 L 222.28 543.958 L 235.606 548.465 L 232.306 542.973 L 242.533 543.723 L 237.366 534.157 L 250.856 537.245 L 189.187 505.36 Z " fill="rgb(202,133,63)"/><path d=" M 149.386 568.73 L 149.672 565.438 L 152.192 566.661 L 132.8 506.973 L 125.038 503.649 L 123.324 511.418 L 118.781 508.107 L 142.105 559.577 L 141.934 555.677 L 149.386 568.73 Z " fill="rgb(231,208,160)"/><path d=" M 477.569 491.147 L 478.013 494.154 L 482.432 491.93 L 468.538 527.976 L 471.829 525.641 L 473.238 530.184 L 487.12 497.037 L 489.033 502.302 L 497.563 500.667 L 498.504 504.411 L 503.092 503.264 L 481.142 556.104 L 479.178 541.965 L 472.381 554.281 L 471.112 548.001 L 464.068 555.454 L 461.43 544.906 L 453.554 556.286 L 477.569 491.147 Z " fill="rgb(157,92,28)"/><path d=" M 349.818 531.865 L 374.825 500.335 L 374.718 495.835 L 367.072 498.832 L 368.61 493.682 L 365.88 495.633 L 364.924 490.608 L 342.774 517.169 L 341.49 521.795 L 346.46 520.243 L 343.584 528.321 L 348.392 526.081 L 344.215 534.177 L 349.818 531.865 Z " fill="rgb(195,128,57)"/><path d=" M 416.843 485.444 L 414.208 487.438 L 413.427 484.747 L 382.104 539.131 L 384.837 547.12 L 391.753 543.188 L 392.338 548.779 L 414.926 496.982 L 412.144 499.722 L 416.843 485.444 Z " fill="rgb(231,208,160)"/><path d=" M 444.72 504.563 L 446.421 507.082 L 441.658 508.421 L 476.23 525.658 L 472.226 526.153 L 474.25 530.458 L 441.642 515.353 L 443.782 520.531 L 436.382 525.078 L 438.213 528.476 L 434.052 530.725 L 485.901 554.924 L 477.812 543.161 L 491.139 547.668 L 487.839 542.177 L 498.066 542.927 L 492.898 533.36 L 506.389 536.448 L 444.72 504.563 Z " fill="rgb(202,133,63)"/><path d=" M 430.699 508.65 L 459.905 536.336 L 460.435 540.806 L 452.442 538.917 L 454.692 543.799 L 451.714 542.253 L 451.476 547.363 L 425.8 524.194 L 423.875 519.795 L 429.015 520.63 L 425.028 513.039 L 430.104 514.578 L 424.825 507.153 L 430.699 508.65 Z " fill="rgb(212,144,71)"/><path d=" M 328.025 568.73 L 328.31 565.438 L 330.831 566.661 L 311.439 506.973 L 303.677 503.649 L 301.963 511.418 L 297.42 508.107 L 320.744 559.577 L 320.573 555.677 L 328.025 568.73 Z " fill="rgb(231,208,160)"/><path d=" M 241.179 496.472 L 248.21 494.717 L 246.914 497.213 L 260.004 499.348 L 259.013 501.257 L 270.164 502.758 L 252.619 539.235 L 257.405 538.966 L 257.337 543.405 L 263.137 541.942 L 269.13 549.526 L 253.045 587.037 L 248.876 579.523 L 244.011 583.417 L 242.777 578.711 L 238.146 580.372 L 230.959 570.222 L 238.737 550.293 L 234.446 553.201 L 236.057 545.478 L 222.633 575.957 L 219.906 572.829 L 214.739 578.492 L 210.259 567.821 L 241.179 496.472 Z " fill="rgb(172,93,36)"/><path d=" M 298.946 518.191 L 250.078 512.015 L 252.933 516.038 L 249.517 519.012 L 252.564 523.926 L 246.533 528.948 L 267.316 537.022 L 262.389 540.041 L 265.047 541.839 L 260.507 546.308 L 299.959 556.99 L 297.025 553.442 L 305.512 543.493 L 302.608 540.954 L 305.422 538.8 L 300.654 533.035 L 307.9 530.546 L 295.398 522.792 L 298.946 518.191 Z " fill="rgb(225,176,110)"/><path d=" M 378.793 377.868 L 380.678 375.483 L 383.398 379.615 L 389.338 341.444 L 391.025 345.109 L 394.512 341.875 L 390.009 377.528 L 394.294 373.918 L 400.87 379.59 L 403.554 376.815 L 406.958 380.098 L 414.293 323.352 L 405.537 334.627 L 405.79 320.561 L 401.558 325.372 L 399.171 315.399 L 391.623 323.224 L 390.473 309.433 L 378.793 377.868 Z " fill="rgb(202,133,63)"/><path d=" M -16.933 48.513 L -16.884 52.766 L -20.652 53.997 L -19.44 57.343 L -23.304 58.744 L 5.424 78.349 L 0.407 77.993 L 4.88 84.717 L 40.09 109.277 L 37.347 104.632 L 44.606 105.573 L 38.512 98.166 L 49.919 99.644 L 17.681 75.41 L 24.937 76.127 L -16.933 48.513 Z " fill="rgb(206,153,87)"/><path d=" M 309.433 243.894 L 309.826 251.13 L 311.83 249.156 L 317.727 261.037 L 319.259 259.527 L 323.979 269.741 L 353.668 242.229 L 354.82 246.882 L 359.042 245.51 L 359.353 251.483 L 368.366 254.975 L 399.474 228.554 L 391.066 226.784 L 393.353 220.987 L 388.493 221.195 L 388.716 216.28 L 376.899 212.402 L 360.146 225.706 L 361.66 220.748 L 354.755 224.563 L 379.926 202.756 L 376.134 201.071 L 380.024 194.465 L 368.507 193.328 L 309.433 243.894 Z " fill="rgb(166,112,50)"/><path d=" M 327.56 186.209 L 324.573 187.623 L 324.358 184.829 L 282.594 231.674 L 283.639 240.053 L 291.211 237.616 L 290.643 243.208 L 323.328 197.112 L 320.046 199.226 L 327.56 186.209 Z " fill="rgb(231,208,160)"/><path d=" M 364.457 203.922 L 315.24 201.953 L 318.72 198.456 L 315.841 194.96 L 319.657 190.615 L 314.537 184.668 L 336.367 180.132 L 332.005 176.341 L 334.924 175.006 L 331.183 169.85 L 371.857 165.822 L 368.378 168.837 L 375.107 180.05 L 371.825 182.075 L 374.244 184.664 L 368.591 189.563 L 375.327 193.214 L 361.717 198.799 L 364.457 203.922 Z " fill="rgb(223,168,98)"/><path d=" M 341.49 268.383 L 344.763 268.838 L 344.132 266.108 L 398.004 298.302 L 399.516 306.609 L 391.561 306.55 L 393.777 311.717 L 348.792 277.52 L 352.556 278.554 L 341.49 268.383 Z " fill="rgb(182,109,37)"/><path d=" M 350.882 131.207 L 347.872 130.782 L 350.068 126.349 L 314.11 140.469 L 316.425 137.164 L 311.873 135.783 L 344.932 121.693 L 339.655 119.813 L 341.236 111.273 L 337.486 110.356 L 338.604 105.761 L 285.903 128.043 L 300.055 129.918 L 287.781 136.792 L 294.069 138.021 L 286.661 145.112 L 297.225 147.684 L 285.895 155.631 L 350.882 131.207 Z " fill="rgb(202,133,63)"/><path d=" M 293.895 43.055 L 330.12 25.526 L 334.489 26.612 L 329.896 33.421 L 335.258 33.043 L 332.758 35.281 L 337.454 37.31 L 306.702 53.134 L 301.907 53.379 L 304.506 48.867 L 295.995 49.913 L 299.229 45.708 L 290.417 48.02 L 293.895 43.055 Z " fill="rgb(212,144,71)"/><path d=" M 410.975 277.54 L 407.997 276.109 L 410.032 274.184 L 347.343 271.216 L 341.49 277.301 L 348.15 281.651 L 343.447 284.73 L 399.839 281.114 L 396.13 279.895 L 410.975 277.54 Z " fill="rgb(231,208,160)"/><path d=" M 431.645 63.972 L 402.197 24.488 L 407.105 24.99 L 408.01 20.553 L 413.787 20.783 L 415.186 13.062 L 432.45 27.17 L 432.651 21.395 L 435.526 22.822 L 437.178 16.67 L 465.908 45.741 L 461.376 44.935 L 456.898 57.222 L 453.259 55.945 L 452.77 59.455 L 445.404 58.146 L 446.808 65.679 L 433.901 58.618 L 431.645 63.972 Z " fill="rgb(223,168,98)"/><path d=" M 398.929 139.128 L 397.365 136.522 L 402.192 135.438 L 368.588 116.384 L 372.613 116.102 L 370.821 111.696 L 402.577 128.517 L 400.717 123.232 L 408.348 119.086 L 406.701 115.595 L 410.975 113.571 L 360.49 86.644 L 367.94 98.821 L 354.873 93.61 L 357.875 99.27 L 347.703 97.976 L 352.353 107.804 L 339.047 104.002 L 398.929 139.128 Z " fill="rgb(202,133,63)"/><path d=" M 297.071 190.014 L 301.308 195.893 L 301.93 193.15 L 313.306 199.969 L 313.782 197.871 L 323.268 203.922 L 333.411 164.737 L 336.893 168.032 L 339.706 164.598 L 343.192 169.459 L 352.665 167.534 L 364.591 128.501 L 356.557 131.55 L 355.354 125.435 L 351.375 128.233 L 348.91 123.975 L 336.869 127.089 L 329.946 147.331 L 328.545 142.34 L 324.791 149.279 L 334.211 117.334 L 330.109 117.963 L 329.819 110.302 L 319.509 115.561 L 297.071 190.014 Z " fill="rgb(166,112,50)"/><path d=" M 496.151 426.299 L 447.569 434.418 L 450.261 430.284 L 446.729 427.449 L 449.578 422.417 L 443.352 417.64 L 463.796 408.744 L 458.753 405.923 L 461.337 404.021 L 456.623 399.736 L 495.618 387.491 L 492.828 391.153 L 501.704 400.756 L 498.904 403.408 L 501.801 405.449 L 497.266 411.399 L 504.607 413.598 L 492.423 421.844 L 496.151 426.299 Z " fill="rgb(223,168,98)"/><path d=" M 155.765 494.602 L 193.834 481.557 L 196.173 477.71 L 188.119 476.107 L 192.193 472.601 L 188.842 472.77 L 190.749 468.024 L 157.767 478.429 L 154.189 481.63 L 159.211 483.006 L 152.43 488.253 L 157.686 488.963 L 149.8 493.524 L 155.765 494.602 Z " fill="rgb(195,128,57)"/><path d=" M 59.696 470.334 L 62.993 470.111 L 61.818 467.567 L 121.128 488.087 L 124.304 495.911 L 116.504 497.477 L 119.728 502.082 L 68.709 477.787 L 72.606 478.032 L 59.696 470.334 Z " fill="rgb(182,109,37)"/><path d=" M 449.3 455.676 L 477.452 496.094 L 478.527 491.279 L 483.023 491.823 L 484.63 486.269 L 492.398 487.382 L 484.47 466.544 L 490.012 468.179 L 489.566 465 L 495.926 465.377 L 477.426 428.931 L 476.758 433.486 L 463.685 433.851 L 463.746 437.707 L 460.262 437.062 L 459.176 444.463 L 452.473 440.751 L 455.092 455.228 L 449.3 455.676 Z " fill="rgb(225,176,110)"/><path d=" M 339.047 444.138 L 336.014 444.337 L 337.259 439.549 L 304.94 460.711 L 306.531 457.003 L 301.794 456.581 L 331.281 436.04 L 325.73 435.276 L 325.535 426.593 L 321.677 426.461 L 321.834 421.734 L 274.791 454.304 L 289.027 453.251 L 278.415 462.486 L 284.821 462.406 L 279.016 470.859 L 289.883 471.221 L 280.414 481.313 L 339.047 444.138 Z " fill="rgb(202,133,63)"/><path d=" M 357.022 499.619 L 360.147 496.733 L 363.586 498.706 L 365.258 495.565 L 368.886 497.494 L 364.195 463.032 L 367.292 466.996 L 369.288 459.17 L 363.934 416.575 L 362.322 421.724 L 358.158 415.705 L 356.741 425.19 L 350.197 415.732 L 353.802 455.901 L 349.473 450.034 L 357.022 499.619 Z " fill="rgb(206,153,87)"/><path d=" M 100.48 420.131 L 131.991 457.99 L 127.063 457.749 L 126.396 462.229 L 120.614 462.306 L 119.628 470.092 L 101.637 456.923 L 101.744 462.701 L 98.798 461.429 L 97.476 467.661 L 67.237 440.161 L 71.806 440.725 L 75.623 428.216 L 79.325 429.297 L 79.626 425.766 L 87.051 426.682 L 85.248 419.234 L 98.513 425.597 L 100.48 420.131 Z " fill="rgb(223,168,98)"/><path d=" M 343.429 473.587 L 336.501 475.715 L 337.662 473.153 L 324.476 471.718 L 325.364 469.759 L 314.149 468.854 L 329.726 431.495 L 324.961 432.019 L 324.792 427.582 L 319.078 429.352 L 312.691 422.098 L 326.754 383.784 L 331.317 391.065 L 335.968 386.917 L 337.45 391.551 L 341.986 389.645 L 349.704 399.398 L 342.999 419.713 L 347.129 416.581 L 345.932 424.379 L 357.713 393.228 L 360.603 396.205 L 365.46 390.275 L 370.503 400.692 L 343.429 473.587 Z " fill="rgb(172,93,36)"/><path d=" M 398.206 414.764 L 388.62 463.079 L 385.705 459.099 L 381.804 461.4 L 378.105 456.956 L 371.435 461.09 L 370.343 438.821 L 365.921 442.541 L 365.055 439.45 L 359.381 442.346 L 361.717 401.54 L 364.155 405.445 L 376.277 400.537 L 377.767 404.095 L 380.7 402.107 L 384.662 408.452 L 389.315 402.364 L 392.72 416.676 L 398.206 414.764 Z " fill="rgb(223,168,98)"/><path d=" M 15.937 427.539 L 17.593 420.484 L 19.219 422.778 L 27.108 412.116 L 28.352 413.87 L 34.789 404.642 L 59.195 436.932 L 61.145 432.554 L 65.062 434.645 L 66.415 428.819 L 75.9 426.961 L 101.894 458.426 L 93.306 458.694 L 94.542 464.803 L 89.793 463.746 L 89.152 468.624 L 76.838 470.37 L 62.676 454.336 L 63.298 459.482 L 57.168 454.516 L 78.127 480.398 L 74.098 481.392 L 76.77 488.577 L 65.231 487.678 L 15.937 427.539 Z " fill="rgb(172,93,36)"/><path d=" M 28.499 385.287 L 56.652 425.706 L 57.726 420.891 L 62.222 421.435 L 63.83 415.88 L 71.598 416.994 L 63.669 396.155 L 69.212 397.79 L 68.766 394.612 L 75.125 394.989 L 56.625 358.543 L 55.957 363.098 L 42.885 363.462 L 42.946 367.318 L 39.461 366.673 L 38.376 374.075 L 31.672 370.363 L 34.292 384.839 L 28.499 385.287 Z " fill="rgb(225,176,110)"/><path d=" M 251.853 484.825 L 254.978 481.939 L 258.416 483.912 L 260.088 480.77 L 263.716 482.7 L 259.026 448.238 L 262.123 452.202 L 264.119 444.376 L 258.765 401.781 L 257.153 406.93 L 252.989 400.911 L 251.572 410.396 L 245.028 400.938 L 248.633 441.107 L 244.304 435.24 L 251.853 484.825 Z " fill="rgb(206,153,87)"/><path d=" M 125.436 482.332 L 151.955 440.824 L 153.221 445.592 L 157.692 444.87 L 159.519 450.356 L 167.237 448.933 L 160.145 470.071 L 165.618 468.217 L 165.299 471.41 L 171.639 470.78 L 154.605 507.935 L 153.756 503.41 L 140.68 503.567 L 140.587 499.711 L 137.131 500.495 L 135.751 493.142 L 129.202 497.118 L 131.242 482.549 L 125.436 482.332 Z " fill="rgb(223,168,98)"/><path d=" M 427.431 490.99 L 429.315 488.605 L 432.036 492.737 L 437.976 454.566 L 439.662 458.231 L 443.15 454.997 L 438.646 490.65 L 442.931 487.041 L 449.508 492.713 L 452.191 489.937 L 455.596 493.22 L 462.93 436.474 L 454.175 447.749 L 454.428 433.684 L 450.196 438.494 L 447.809 428.521 L 440.26 436.347 L 439.111 422.555 L 427.431 490.99 Z " fill="rgb(202,133,63)"/><path d=" M -24.823 470.247 L -24.43 477.483 L -22.426 475.509 L -16.529 487.39 L -14.997 485.881 L -10.277 496.094 L 19.412 468.583 L 20.565 473.235 L 24.787 471.863 L 25.098 477.836 L 34.111 481.328 L 65.218 454.907 L 56.81 453.137 L 59.097 447.34 L 54.237 447.548 L 54.461 442.633 L 42.643 438.756 L 25.89 452.059 L 27.405 447.101 L 20.499 450.916 L 45.671 429.109 L 41.879 427.424 L 45.769 420.819 L 34.251 419.681 L -24.823 470.247 Z " fill="rgb(166,112,50)"/><path d=" M 20.211 425.884 L -29.006 423.915 L -25.527 420.418 L -28.405 416.921 L -24.59 412.577 L -29.709 406.63 L -7.88 402.094 L -12.241 398.303 L -9.322 396.968 L -13.064 391.812 L 27.61 387.784 L 24.131 390.799 L 30.861 402.012 L 27.578 404.037 L 29.997 406.626 L 24.344 411.525 L 31.081 415.176 L 17.471 420.761 L 20.211 425.884 Z " fill="rgb(223,168,98)"/><path d=" M 543.081 63.249 L 540.446 65.243 L 539.665 62.552 L 508.342 116.936 L 511.075 124.925 L 517.991 120.994 L 518.576 126.585 L 541.164 74.787 L 538.382 77.527 L 543.081 63.249 Z " fill="rgb(231,208,160)"/><path d=" M 559.16 37.832 L 510.577 45.951 L 513.27 41.817 L 509.738 38.982 L 512.587 33.95 L 506.361 29.173 L 526.805 20.277 L 521.762 17.456 L 524.346 15.554 L 519.631 11.269 L 558.627 -0.976 L 555.836 2.686 L 564.713 12.289 L 561.913 14.941 L 564.81 16.982 L 560.275 22.932 L 567.615 25.131 L 555.432 33.377 L 559.16 37.832 Z " fill="rgb(223,168,98)"/><path d=" M 586.377 350.549 L 587.903 343.465 L 585.45 344.841 L 582.891 331.827 L 581.015 332.879 L 579.153 321.783 L 543.265 340.503 L 543.379 335.711 L 538.944 335.923 L 540.218 330.078 L 532.443 324.336 L 495.475 341.63 L 503.12 345.552 L 499.386 350.542 L 504.13 351.622 L 502.619 356.304 L 512.998 363.158 L 532.664 354.737 L 529.897 359.12 L 537.563 357.259 L 507.537 371.666 L 510.751 374.29 L 505.258 379.638 L 516.07 383.769 L 586.377 350.549 Z " fill="rgb(166,112,50)"/><path d=" M 502.23 160.097 L 528.749 118.589 L 530.015 123.357 L 534.485 122.635 L 536.313 128.121 L 544.03 126.698 L 536.939 147.836 L 542.412 145.982 L 542.093 149.175 L 548.432 148.545 L 531.399 185.7 L 530.55 181.175 L 517.474 181.332 L 517.381 177.476 L 513.925 178.26 L 512.545 170.907 L 505.995 174.883 L 508.035 160.314 L 502.23 160.097 Z " fill="rgb(223,168,98)"/><path d=" M 507.581 246.651 L 509.466 244.266 L 512.186 248.398 L 518.126 210.227 L 519.813 213.892 L 523.301 210.658 L 518.797 246.311 L 523.082 242.702 L 529.659 248.374 L 532.342 245.598 L 535.746 248.881 L 543.081 192.135 L 534.325 203.41 L 534.578 189.344 L 530.346 194.155 L 527.959 184.182 L 520.411 192.007 L 519.261 178.216 L 507.581 246.651 Z " fill="rgb(202,133,63)"/><path d=" M 593.789 286.086 L 597.917 292.042 L 595.124 291.712 L 597.756 304.712 L 595.62 304.46 L 598.159 315.421 L 557.835 311.909 L 559.779 316.29 L 555.603 317.797 L 559.022 322.705 L 554.047 330.992 L 513.272 329.211 L 518.826 322.655 L 513.463 319.48 L 517.429 316.663 L 514.237 312.918 L 521.191 302.607 L 542.582 302.834 L 538.345 299.849 L 546.139 298.625 L 512.882 296.846 L 514.843 293.189 L 507.718 290.359 L 516.116 282.394 L 593.789 286.086 Z " fill="rgb(208,148,77)"/><path d=" M 536.838 278.093 L 487.621 276.124 L 491.1 272.627 L 488.222 269.13 L 492.037 264.786 L 486.918 258.839 L 508.747 254.303 L 504.386 250.512 L 507.305 249.177 L 503.563 244.02 L 544.237 239.993 L 540.758 243.008 L 547.488 254.221 L 544.205 256.246 L 546.624 258.835 L 540.971 263.734 L 547.708 267.385 L 534.098 272.97 L 536.838 278.093 Z " fill="rgb(223,168,98)"/><path d=" M 572.992 121.492 L 569.983 121.067 L 572.179 116.634 L 536.221 130.754 L 538.536 127.449 L 533.984 126.068 L 567.043 111.978 L 561.766 110.098 L 563.347 101.558 L 559.597 100.641 L 560.715 96.046 L 508.014 118.328 L 522.166 120.202 L 509.892 127.077 L 516.18 128.306 L 508.772 135.396 L 519.336 137.968 L 508.006 145.916 L 572.992 121.492 Z " fill="rgb(202,133,63)"/><path d=" M 495.067 48.498 L 495.116 52.752 L 491.348 53.983 L 492.56 57.329 L 488.696 58.729 L 517.424 78.334 L 512.407 77.978 L 516.88 84.702 L 552.09 109.263 L 549.347 104.617 L 556.606 105.558 L 550.512 98.151 L 561.919 99.63 L 529.681 75.395 L 536.937 76.112 L 495.067 48.498 Z " fill="rgb(206,153,87)"/><path d=" M 487.177 470.232 L 487.57 477.468 L 489.574 475.495 L 495.471 487.375 L 497.003 485.866 L 501.723 496.08 L 531.412 468.568 L 532.565 473.22 L 536.787 471.848 L 537.098 477.822 L 546.111 481.314 L 577.218 454.893 L 568.81 453.123 L 571.097 447.326 L 566.237 447.534 L 566.461 442.619 L 554.643 438.741 L 537.89 452.045 L 539.405 447.087 L 532.499 450.902 L 557.671 429.094 L 553.879 427.41 L 557.769 420.804 L 546.251 419.666 L 487.177 470.232 Z " fill="rgb(166,112,50)"/><path d=" M 532.211 425.87 L 482.994 423.901 L 486.473 420.403 L 483.595 416.907 L 487.41 412.563 L 482.291 406.615 L 504.12 402.08 L 499.759 398.289 L 502.678 396.954 L 498.936 391.797 L 539.61 387.77 L 536.131 390.785 L 542.861 401.998 L 539.578 404.022 L 541.997 406.612 L 536.344 411.511 L 543.081 415.162 L 529.471 420.747 L 532.211 425.87 Z " fill="rgb(223,168,98)"/><path d=" M 504.776 436.227 L 501.737 436.174 L 503.209 440.897 L 469.915 421.306 L 471.682 424.933 L 466.97 425.582 L 497.406 444.688 L 491.899 445.717 L 492.12 454.399 L 488.272 454.716 L 488.655 459.43 L 440.107 429.148 L 454.377 429.519 L 443.336 420.802 L 449.738 420.576 L 443.536 412.41 L 454.373 411.529 L 444.431 401.901 L 504.776 436.227 Z " fill="rgb(157,92,28)"/><path d=" M 321.226 490.751 L 316.997 490.288 L 315.405 493.918 L 312.193 492.386 L 310.423 496.094 L 293.711 465.593 L 293.576 470.621 L 287.32 465.514 L 266.307 428.078 L 270.664 431.26 L 270.435 423.944 L 277.213 430.731 L 276.853 419.234 L 297.83 453.68 L 297.824 446.389 L 321.226 490.751 Z " fill="rgb(221,156,91)"/><path d=" M 323.839 460.646 L 330.495 500.335 L 333.908 503.27 L 336.805 495.586 L 339.598 500.178 L 339.979 496.844 L 344.35 499.5 L 339.469 465.262 L 336.895 461.209 L 334.717 465.94 L 330.647 458.393 L 329.089 463.463 L 325.877 454.938 L 323.839 460.646 Z " fill="rgb(195,128,57)"/><path d=" M 372.967 456.977 L 376.24 457.432 L 375.609 454.702 L 429.481 486.895 L 430.993 495.203 L 423.038 495.144 L 425.254 500.31 L 380.269 466.113 L 384.033 467.148 L 372.967 456.977 Z " fill="rgb(182,109,37)"/><path d=" M 301.208 472.056 L 298.199 471.631 L 300.395 467.198 L 264.437 481.318 L 266.752 478.013 L 262.2 476.632 L 295.259 462.542 L 289.982 460.662 L 291.563 452.122 L 287.813 451.205 L 288.931 446.61 L 236.23 468.892 L 250.382 470.766 L 238.108 477.641 L 244.396 478.87 L 236.988 485.96 L 247.552 488.533 L 236.222 496.48 L 301.208 472.056 Z " fill="rgb(202,133,63)"/><path d=" M 126.64 400.259 L 133.671 398.503 L 132.375 400.999 L 145.466 403.135 L 144.475 405.044 L 155.626 406.545 L 138.081 443.021 L 142.866 442.752 L 142.799 447.191 L 148.599 445.728 L 154.591 453.313 L 138.506 490.823 L 134.338 483.309 L 129.472 487.203 L 128.239 482.497 L 123.608 484.159 L 116.421 474.008 L 124.199 454.079 L 119.908 456.987 L 121.519 449.264 L 108.094 479.743 L 105.367 476.615 L 100.201 482.279 L 95.721 471.607 L 126.64 400.259 Z " fill="rgb(208,148,77)"/><path d=" M 193.386 502.632 L 193.671 499.34 L 196.192 500.563 L 176.8 440.875 L 169.038 437.552 L 167.324 445.32 L 162.781 442.009 L 186.105 493.479 L 185.934 489.579 L 193.386 502.632 Z " fill="rgb(231,208,160)"/><path d=" M 201.874 444.663 L 199.831 447.26 L 202.507 448.092 L 147.539 478.378 L 139.603 475.495 L 143.665 468.655 L 138.086 467.963 L 190.303 446.361 L 187.511 449.09 L 201.874 444.663 Z " fill="rgb(182,109,37)"/><path d=" M 136.099 405.423 L 87.232 399.247 L 90.087 403.27 L 86.671 406.244 L 89.718 411.158 L 83.687 416.179 L 104.469 424.253 L 99.542 427.273 L 102.201 429.071 L 97.66 433.54 L 137.113 444.221 L 134.179 440.674 L 142.666 430.725 L 139.762 428.186 L 142.575 426.032 L 137.807 420.267 L 145.054 417.777 L 132.551 410.023 L 136.099 405.423 Z " fill="rgb(225,176,110)"/><path d=" M 82.179 448.545 L 79.192 449.959 L 78.977 447.165 L 37.213 494.01 L 38.258 502.389 L 45.83 499.952 L 45.262 505.545 L 77.947 459.448 L 74.665 461.563 L 82.179 448.545 Z " fill="rgb(231,208,160)"/><path d=" M 314.039 438.637 L 264.822 436.668 L 268.301 433.171 L 265.423 429.674 L 269.238 425.33 L 264.119 419.383 L 285.948 414.847 L 281.587 411.056 L 284.506 409.721 L 280.764 404.565 L 321.438 400.537 L 317.959 403.552 L 324.689 414.765 L 321.406 416.79 L 323.825 419.379 L 318.172 424.278 L 324.909 427.929 L 311.299 433.514 L 314.039 438.637 Z " fill="rgb(223,168,98)"/><path d=" M 162.157 459.937 L 165.43 460.392 L 164.799 457.662 L 218.672 489.855 L 220.183 498.163 L 212.228 498.104 L 214.445 503.27 L 169.459 469.073 L 173.224 470.108 L 162.157 459.937 Z " fill="rgb(182,109,37)"/><path d=" M 235.384 474.648 L 205.935 435.164 L 210.843 435.667 L 211.748 431.229 L 217.526 431.46 L 218.925 423.738 L 236.189 437.846 L 236.39 432.071 L 239.264 433.499 L 240.916 427.346 L 269.647 456.417 L 265.114 455.611 L 260.637 467.898 L 256.997 466.622 L 256.508 470.132 L 249.143 468.822 L 250.546 476.355 L 237.639 469.294 L 235.384 474.648 Z " fill="rgb(223,168,98)"/><path d=" M 382.783 473.726 L 387.019 479.605 L 387.641 476.862 L 399.018 483.681 L 399.493 481.583 L 408.979 487.634 L 419.122 448.449 L 422.604 451.743 L 425.418 448.309 L 428.903 453.17 L 438.376 451.245 L 450.302 412.213 L 442.269 415.261 L 441.065 409.147 L 437.086 411.945 L 434.621 407.687 L 422.58 410.801 L 415.657 431.043 L 414.257 426.052 L 410.502 432.99 L 419.922 401.046 L 415.82 401.675 L 415.53 394.014 L 405.22 399.273 L 382.783 473.726 Z " fill="rgb(166,112,50)"/></g></svg>