<?xml version="1.0" standalone="no"?><!-- Generator: Gravit.io --><svg xmlns="http://www.w3.org/2000/svg" xmlns:xlink="http://www.w3.org/1999/xlink" style="isolation:isolate" viewBox="0 0 128 128" width="128" height="128"><defs><clipPath id="_clipPath_v6TntfNV4Rm2ixcofpWs8JVcMLmeDfOt"><rect width="128" height="128"/></clipPath></defs><g clip-path="url(#_clipPath_v6TntfNV4Rm2ixcofpWs8JVcMLmeDfOt)"><rect width="128" height="128" style="fill:rgb(49,49,49)"/><rect x="-58.583" y="58.583" width="128" height="10.833" transform="matrix(0,1,-1,0,69.417,58.583)" fill="rgb(49,49,49)"/><rect x="-51.875" y="62.708" width="128" height="2.583" transform="matrix(0,1,-1,0,76.125,51.875)" fill="rgb(72,72,72)"/><rect x="-49.292" y="62.708" width="128" height="2.583" transform="matrix(0,1,-1,0,78.708,49.292)" fill="rgb(104,104,104)"/><rect x="-42.583" y="58.583" width="128" height="10.833" transform="matrix(0,1,-1,0,85.417,42.583)" fill="rgb(49,49,49)"/><rect x="-35.875" y="62.708" width="128" height="2.583" transform="matrix(0,1,-1,0,92.125,35.875)" fill="rgb(72,72,72)"/><rect x="-33.292" y="62.708" width="128" height="2.583" transform="matrix(0,1,-1,0,94.708,33.292)" fill="rgb(104,104,104)"/><rect x="-26.583" y="58.583" width="128" height="10.833" transform="matrix(0,1,-1,0,101.417,26.583)" fill="rgb(49,49,49)"/><rect x="-19.875" y="62.708" width="128" height="2.583" transform="matrix(0,1,-1,0,108.125,19.875)" fill="rgb(72,72,72)"/><rect x="-17.292" y="62.708" width="128" height="2.583" transform="matrix(0,1,-1,0,110.708,17.292)" fill="rgb(104,104,104)"/><rect x="-10.583" y="58.583" width="128" height="10.833" transform="matrix(0,1,-1,0,117.417,10.583)" fill="rgb(49,49,49)"/><rect x="-3.875" y="62.708" width="128" height="2.583" transform="matrix(0,1,-1,0,124.125,3.875)" fill="rgb(72,72,72)"/><rect x="-1.292" y="62.708" width="128" height="2.583" transform="matrix(0,1,-1,0,126.708,1.292)" fill="rgb(104,104,104)"/><rect x="5.417" y="58.583" width="128" height="10.833" transform="matrix(0,1,-1,0,133.417,-5.417)" fill="rgb(49,49,49)"/><rect x="12.125" y="62.708" width="128" height="2.583" transform="matrix(0,1,-1,0,140.125,-12.125)" fill="rgb(72,72,72)"/><rect x="14.708" y="62.708" width="128" height="2.583" transform="matrix(0,1,-1,0,142.708,-14.708)" fill="rgb(104,104,104)"/><rect x="21.417" y="58.583" width="128" height="10.833" transform="matrix(0,1,-1,0,149.417,-21.417)" fill="rgb(49,49,49)"/><rect x="28.125" y="62.708" width="128" height="2.583" transform="matrix(0,1,-1,0,156.125,-28.125)" fill="rgb(72,72,72)"/><rect x="30.708" y="62.708" width="128" height="2.583" transform="matrix(0,1,-1,0,158.708,-30.708)" fill="rgb(104,104,104)"/><rect x="37.417" y="58.583" width="128" height="10.833" transform="matrix(0,1,-1,0,165.417,-37.417)" fill="rgb(49,49,49)"/><rect x="44.125" y="62.708" width="128" height="2.583" transform="matrix(0,1,-1,0,172.125,-44.125)" fill="rgb(72,72,72)"/><rect x="46.708" y="62.708" width="128" height="2.583" transform="matrix(0,1,-1,0,174.708,-46.708)" fill="rgb(104,104,104)"/><rect x="53.417" y="58.583" width="128" height="10.833" transform="matrix(0,1,-1,0,181.417,-53.417)" fill="rgb(49,49,49)"/><rect x="60.125" y="62.708" width="128" height="2.583" transform="matrix(0,1,-1,0,188.125,-60.125)" fill="rgb(72,72,72)"/><rect x="62.708" y="62.708" width="128" height="2.583" transform="matrix(0,1,-1,0,190.708,-62.708)" fill="rgb(104,104,104)"/></g></svg>