# Blender v3.0.1 OBJ File: 'portal.blend'
# www.blender.org
mtllib portal.mtl
o Circle
v 0.000000 0.000000 -0.500000
v -0.000000 0.195090 -0.490393
v -0.000000 0.382683 -0.461940
v -0.000000 0.555570 -0.415735
v -0.000000 0.707107 -0.353554
v -0.000000 0.831470 -0.277785
v -0.000000 0.923880 -0.191342
v -0.000000 0.980785 -0.097545
v -0.000000 1.000000 -0.000000
v -0.000000 0.980785 0.097545
v -0.000000 0.923880 0.191342
v -0.000000 0.831470 0.277785
v -0.000000 0.707107 0.353553
v -0.000000 0.555570 0.415735
v -0.000000 0.382683 0.461940
v -0.000000 0.195090 0.490393
v 0.000000 -0.000000 0.500000
v 0.000000 -0.195091 0.490392
v 0.000000 -0.382684 0.461940
v 0.000000 -0.555571 0.415734
v 0.000000 -0.707107 0.353553
v 0.000000 -0.831470 0.277785
v 0.000000 -0.923880 0.191341
v 0.000000 -0.980785 0.097545
v 0.000000 -1.000000 -0.000001
v 0.000000 -0.980785 -0.097546
v 0.000000 -0.923879 -0.191342
v 0.000000 -0.831469 -0.277786
v 0.000000 -0.707106 -0.353554
v 0.000000 -0.555569 -0.415735
v 0.000000 -0.382682 -0.461940
v 0.000000 -0.195089 -0.490393
vt 0.259677 0.390396
vt 0.278519 0.297313
vt 0.305875 0.212019
vt 0.340692 0.137792
vt 0.381632 0.077485
vt 0.427123 0.033415
vt 0.475416 0.007275
vt 0.524654 0.000071
vt 0.572947 0.012078
vt 0.618438 0.042836
vt 0.659378 0.091163
vt 0.694195 0.155201
vt 0.721551 0.232489
vt 0.740394 0.320058
vt 0.750000 0.414542
vt 0.750000 0.512310
vt 0.740394 0.609605
vt 0.721551 0.702687
vt 0.694196 0.787981
vt 0.659379 0.862208
vt 0.618438 0.922515
vt 0.572947 0.966585
vt 0.524655 0.992725
vt 0.475416 0.999929
vt 0.427123 0.987922
vt 0.381633 0.957164
vt 0.340692 0.908837
vt 0.305875 0.844799
vt 0.278520 0.767510
vt 0.259677 0.679941
vt 0.250071 0.585458
vt 0.250071 0.487690
vn 1.0000 0.0000 0.0000
usemtl None
s off
f 2/1/1 3/2/1 4/3/1 5/4/1 6/5/1 7/6/1 8/7/1 9/8/1 10/9/1 11/10/1 12/11/1 13/12/1 14/13/1 15/14/1 16/15/1 17/16/1 18/17/1 19/18/1 20/19/1 21/20/1 22/21/1 23/22/1 24/23/1 25/24/1 26/25/1 27/26/1 28/27/1 29/28/1 30/29/1 31/30/1 32/31/1 1/32/1
