# Blender v3.0.1 OBJ File: 'portalring.blend'
# www.blender.org
mtllib portalring.mtl
o Circle
v 0.000000 -0.000000 -0.517547
v -0.000000 0.201937 -0.507602
v -0.000000 0.396113 -0.478151
v -0.000000 0.575067 -0.430325
v -0.000000 0.731922 -0.365961
v -0.000000 0.860649 -0.287534
v -0.000000 0.956302 -0.198057
v -0.000000 1.015204 -0.100969
v -0.000000 1.035094 -0.000000
v -0.000000 1.015205 0.100968
v -0.000000 0.956302 0.198056
v -0.000000 0.860649 0.287533
v -0.000000 0.731922 0.365961
v -0.000000 0.575067 0.430324
v -0.000000 0.396113 0.478151
v -0.000000 0.201936 0.507602
v 0.000000 -0.000000 0.517547
v 0.000000 -0.201937 0.507602
v 0.000000 -0.396114 0.478151
v 0.000000 -0.575068 0.430324
v 0.000000 -0.731922 0.365960
v 0.000000 -0.860649 0.287533
v 0.000000 -0.956302 0.198056
v 0.000000 -1.015205 0.100968
v 0.000000 -1.035094 -0.000001
v 0.000000 -1.015204 -0.100969
v 0.000000 -0.956301 -0.198057
v 0.000000 -0.860648 -0.287534
v 0.000000 -0.731921 -0.365961
v 0.000000 -0.575066 -0.430325
v 0.000000 -0.396112 -0.478151
v 0.000000 -0.201935 -0.507603
v 0.022849 0.000000 -0.486754
v 0.022849 0.189922 -0.477401
v 0.022849 0.372545 -0.449702
v 0.022849 0.540852 -0.404721
v 0.022848 0.688374 -0.344187
v 0.022848 0.809442 -0.270426
v 0.022848 0.899404 -0.186273
v 0.022848 0.954802 -0.094961
v 0.022848 0.973508 -0.000000
v 0.022848 0.954802 0.094961
v 0.022848 0.899404 0.186272
v 0.022848 0.809442 0.270426
v 0.022848 0.688374 0.344187
v 0.022849 0.540852 0.404721
v 0.022849 0.372545 0.449702
v 0.022849 0.189922 0.477401
v 0.022849 -0.000000 0.486754
v 0.022849 -0.189922 0.477401
v 0.022849 -0.372546 0.449702
v 0.022849 -0.540852 0.404721
v 0.022849 -0.688374 0.344187
v 0.022849 -0.809443 0.270426
v 0.022849 -0.899404 0.186272
v 0.022849 -0.954802 0.094960
v 0.022849 -0.973508 -0.000001
v 0.022849 -0.954802 -0.094962
v 0.022849 -0.899404 -0.186273
v 0.022849 -0.809442 -0.270427
v 0.022849 -0.688373 -0.344188
v 0.022849 -0.540851 -0.404722
v 0.022849 -0.372544 -0.449702
v 0.022849 -0.189920 -0.477401
vt 0.427123 0.033415
vt 0.475416 0.007275
vt 0.475416 0.007275
vt 0.427123 0.033415
vt 0.659379 0.862208
vt 0.618438 0.922515
vt 0.618438 0.922515
vt 0.659379 0.862208
vt 0.524654 0.000071
vt 0.524654 0.000071
vt 0.572947 0.966585
vt 0.572947 0.966585
vt 0.572947 0.012078
vt 0.572947 0.012078
vt 0.524655 0.992725
vt 0.524655 0.992725
vt 0.618438 0.042836
vt 0.618438 0.042836
vt 0.475416 0.999929
vt 0.475416 0.999929
vt 0.659378 0.091163
vt 0.659378 0.091163
vt 0.427123 0.987922
vt 0.427123 0.987922
vt 0.694195 0.155201
vt 0.694195 0.155201
vt 0.381633 0.957164
vt 0.381633 0.957164
vt 0.721551 0.232489
vt 0.721551 0.232489
vt 0.340692 0.908837
vt 0.340692 0.908837
vt 0.740394 0.320058
vt 0.740394 0.320058
vt 0.250071 0.487690
vt 0.259677 0.390396
vt 0.259677 0.390396
vt 0.250071 0.487690
vt 0.305875 0.844799
vt 0.305875 0.844799
vt 0.750000 0.414542
vt 0.750000 0.414542
vt 0.278519 0.297313
vt 0.278519 0.297313
vt 0.278520 0.767510
vt 0.278520 0.767510
vt 0.750000 0.512310
vt 0.750000 0.512310
vt 0.305875 0.212019
vt 0.305875 0.212019
vt 0.259677 0.679941
vt 0.259677 0.679941
vt 0.740394 0.609605
vt 0.740394 0.609605
vt 0.340692 0.137792
vt 0.340692 0.137792
vt 0.250071 0.585458
vt 0.250071 0.585458
vt 0.721551 0.702687
vt 0.721551 0.702687
vt 0.381632 0.077485
vt 0.381632 0.077485
vt 0.694196 0.787981
vt 0.694196 0.787981
vn 0.9229 0.3292 -0.1997
vn 0.8748 -0.2521 0.4138
vn 0.9354 0.3470 -0.0684
vn 0.9011 -0.2963 0.3167
vn 0.9354 0.3470 0.0684
vn 0.9229 -0.3292 0.1997
vn 0.9229 0.3292 0.1997
vn 0.9354 -0.3470 0.0684
vn 0.9011 0.2963 0.3167
vn 0.9354 -0.3470 -0.0684
vn 0.8748 0.2521 0.4138
vn 0.9229 -0.3292 -0.1997
vn 0.8488 0.2007 0.4892
vn 0.9011 -0.2963 -0.3167
vn 0.8267 0.1453 0.5436
vn 0.8027 0.0293 -0.5956
vn 0.8748 -0.2521 -0.4138
vn 0.8109 0.0878 0.5786
vn 0.8109 0.0878 -0.5786
vn 0.8488 -0.2007 -0.4892
vn 0.8027 0.0293 0.5956
vn 0.8267 0.1453 -0.5436
vn 0.8267 -0.1453 -0.5436
vn 0.8027 -0.0293 0.5956
vn 0.8488 0.2007 -0.4892
vn 0.8109 -0.0878 -0.5786
vn 0.8109 -0.0878 0.5786
vn 0.8748 0.2521 -0.4138
vn 0.8027 -0.0293 -0.5956
vn 0.8267 -0.1453 0.5436
vn 0.9011 0.2963 -0.3167
vn 0.8488 -0.2007 0.4892
usemtl None
s off
f 7/1/1 8/2/1 40/3/1 39/4/1
f 21/5/2 22/6/2 54/7/2 53/8/2
f 8/2/3 9/9/3 41/10/3 40/3/3
f 22/6/4 23/11/4 55/12/4 54/7/4
f 9/9/5 10/13/5 42/14/5 41/10/5
f 23/11/6 24/15/6 56/16/6 55/12/6
f 10/13/7 11/17/7 43/18/7 42/14/7
f 24/15/8 25/19/8 57/20/8 56/16/8
f 11/17/9 12/21/9 44/22/9 43/18/9
f 25/19/10 26/23/10 58/24/10 57/20/10
f 12/21/11 13/25/11 45/26/11 44/22/11
f 26/23/12 27/27/12 59/28/12 58/24/12
f 13/25/13 14/29/13 46/30/13 45/26/13
f 27/27/14 28/31/14 60/32/14 59/28/14
f 14/29/15 15/33/15 47/34/15 46/30/15
f 1/35/16 2/36/16 34/37/16 33/38/16
f 28/31/17 29/39/17 61/40/17 60/32/17
f 15/33/18 16/41/18 48/42/18 47/34/18
f 2/36/19 3/43/19 35/44/19 34/37/19
f 29/39/20 30/45/20 62/46/20 61/40/20
f 16/41/21 17/47/21 49/48/21 48/42/21
f 3/43/22 4/49/22 36/50/22 35/44/22
f 30/45/23 31/51/23 63/52/23 62/46/23
f 17/47/24 18/53/24 50/54/24 49/48/24
f 4/49/25 5/55/25 37/56/25 36/50/25
f 31/51/26 32/57/26 64/58/26 63/52/26
f 18/53/27 19/59/27 51/60/27 50/54/27
f 5/55/28 6/61/28 38/62/28 37/56/28
f 32/57/29 1/35/29 33/38/29 64/58/29
f 19/59/30 20/63/30 52/64/30 51/60/30
f 6/61/31 7/1/31 39/4/31 38/62/31
f 20/63/32 21/5/32 53/8/32 52/64/32
